BenchTwelve-Reg.ufo
<glyph name="percent" format="1">
  <advance width="2726"/>
  <unicode hex="0025"/>
  <outline>
    <contour>
      <point x="908" y="-82" type="curve" smooth="yes"/>
      <point x="1074" y="-82" type="line" smooth="yes"/>
      <point x="1120" y="-82"/>
      <point x="1163" y="-54"/>
      <point x="1182" y="-12" type="curve" smooth="yes"/>
      <point x="1836" y="1466" type="line" smooth="yes"/>
      <point x="1851" y="1499"/>
      <point x="1827" y="1536"/>
      <point x="1790" y="1536" type="curve" smooth="yes"/>
      <point x="1625" y="1536" type="line" smooth="yes"/>
      <point x="1579" y="1536"/>
      <point x="1535" y="1508"/>
      <point x="1517" y="1466" type="curve" smooth="yes"/>
      <point x="862" y="-12" type="line" smooth="yes"/>
      <point x="847" y="-45"/>
      <point x="871" y="-82"/>
    </contour>
    <contour>
      <point x="610" y="729" type="curve" smooth="yes"/>
      <point x="497" y="729"/>
      <point x="442" y="834"/>
      <point x="442" y="1018" type="curve" smooth="yes"/>
      <point x="442" y="1206"/>
      <point x="501" y="1317"/>
      <point x="610" y="1317" type="curve" smooth="yes"/>
      <point x="718" y="1317"/>
      <point x="778" y="1206"/>
      <point x="778" y="1018" type="curve" smooth="yes"/>
      <point x="778" y="834"/>
      <point x="723" y="729"/>
    </contour>
    <contour>
      <point x="610" y="549" type="curve" smooth="yes"/>
      <point x="907" y="549"/>
      <point x="1058" y="788"/>
      <point x="1058" y="1026" type="curve" smooth="yes"/>
      <point x="1058" y="1262"/>
      <point x="911" y="1497"/>
      <point x="610" y="1497" type="curve" smooth="yes"/>
      <point x="309" y="1497"/>
      <point x="161" y="1262"/>
      <point x="161" y="1026" type="curve" smooth="yes"/>
      <point x="161" y="788"/>
      <point x="313" y="549"/>
    </contour>
    <contour>
      <point x="2107" y="133" type="curve" smooth="yes"/>
      <point x="1994" y="133"/>
      <point x="1939" y="238"/>
      <point x="1939" y="422" type="curve" smooth="yes"/>
      <point x="1939" y="610"/>
      <point x="1998" y="721"/>
      <point x="2107" y="721" type="curve" smooth="yes"/>
      <point x="2216" y="721"/>
      <point x="2275" y="610"/>
      <point x="2275" y="422" type="curve" smooth="yes"/>
      <point x="2275" y="238"/>
      <point x="2220" y="133"/>
    </contour>
    <contour>
      <point x="2107" y="-47" type="curve" smooth="yes"/>
      <point x="2404" y="-47"/>
      <point x="2556" y="193"/>
      <point x="2556" y="430" type="curve" smooth="yes"/>
      <point x="2556" y="666"/>
      <point x="2408" y="901"/>
      <point x="2107" y="901" type="curve" smooth="yes"/>
      <point x="1806" y="901"/>
      <point x="1658" y="666"/>
      <point x="1658" y="430" type="curve" smooth="yes"/>
      <point x="1658" y="193"/>
      <point x="1810" y="-47"/>
    </contour>
  </outline>
</glyph>
<glyph name="parenleft" format="1">
  <advance width="1118"/>
  <unicode hex="0028"/>
  <outline>
    <contour>
      <point x="691" y="1540" type="curve" smooth="yes"/>
      <point x="294" y="1460"/>
      <point x="178" y="1100"/>
      <point x="178" y="699" type="curve" smooth="yes"/>
      <point x="178" y="299"/>
      <point x="294" y="-62"/>
      <point x="691" y="-143" type="curve" smooth="yes"/>
      <point x="730" y="-151"/>
      <point x="768" y="-111"/>
      <point x="768" y="-73" type="curve" smooth="yes"/>
      <point x="768" y="-55" type="line" smooth="yes"/>
      <point x="768" y="14"/>
      <point x="725" y="15"/>
      <point x="663" y="46" type="curve" smooth="yes"/>
      <point x="531" y="112"/>
      <point x="404" y="236"/>
      <point x="404" y="699" type="curve" smooth="yes"/>
      <point x="404" y="1162"/>
      <point x="530" y="1284"/>
      <point x="663" y="1350" type="curve" smooth="yes"/>
      <point x="725" y="1381"/>
      <point x="768" y="1381"/>
      <point x="768" y="1450" type="curve" smooth="yes"/>
      <point x="768" y="1470" type="line" smooth="yes"/>
      <point x="768" y="1508"/>
      <point x="730" y="1548"/>
    </contour>
  </outline>
</glyph>
<glyph name="parenright" format="1">
  <advance width="1118"/>
  <unicode hex="0029"/>
  <outline>
    <contour>
      <point x="255" y="-143" type="curve" smooth="yes"/>
      <point x="652" y="-63"/>
      <point x="768" y="297"/>
      <point x="768" y="698" type="curve" smooth="yes"/>
      <point x="768" y="1098"/>
      <point x="652" y="1459"/>
      <point x="255" y="1540" type="curve" smooth="yes"/>
      <point x="216" y="1548"/>
      <point x="178" y="1508"/>
      <point x="178" y="1470" type="curve" smooth="yes"/>
      <point x="178" y="1452" type="line" smooth="yes"/>
      <point x="178" y="1383"/>
      <point x="221" y="1382"/>
      <point x="283" y="1351" type="curve" smooth="yes"/>
      <point x="415" y="1285"/>
      <point x="542" y="1161"/>
      <point x="542" y="698" type="curve" smooth="yes"/>
      <point x="542" y="235"/>
      <point x="416" y="113"/>
      <point x="283" y="47" type="curve" smooth="yes"/>
      <point x="221" y="16"/>
      <point x="178" y="16"/>
      <point x="178" y="-53" type="curve" smooth="yes"/>
      <point x="178" y="-73" type="line" smooth="yes"/>
      <point x="178" y="-111"/>
      <point x="216" y="-151"/>
    </contour>
  </outline>
</glyph>
<glyph name="plus" format="1">
  <advance width="1350"/>
  <unicode hex="002B"/>
  <outline>
    <contour>
      <point x="587" y="20" type="curve" smooth="yes"/>
      <point x="759" y="20" type="line" smooth="yes"/>
      <point x="802" y="20"/>
      <point x="836" y="54"/>
      <point x="836" y="97" type="curve" smooth="yes"/>
      <point x="836" y="360" type="line" smooth="yes"/>
      <point x="836" y="380"/>
      <point x="853" y="397"/>
      <point x="873" y="397" type="curve" smooth="yes"/>
      <point x="1113" y="397" type="line" smooth="yes"/>
      <point x="1156" y="397"/>
      <point x="1190" y="431"/>
      <point x="1190" y="474" type="curve" smooth="yes"/>
      <point x="1190" y="625" type="line" smooth="yes"/>
      <point x="1190" y="668"/>
      <point x="1156" y="702"/>
      <point x="1113" y="702" type="curve" smooth="yes"/>
      <point x="873" y="702" type="line" smooth="yes"/>
      <point x="853" y="702"/>
      <point x="836" y="719"/>
      <point x="836" y="739" type="curve" smooth="yes"/>
      <point x="836" y="1002" type="line" smooth="yes"/>
      <point x="836" y="1045"/>
      <point x="802" y="1079"/>
      <point x="759" y="1079" type="curve" smooth="yes"/>
      <point x="587" y="1079" type="line" smooth="yes"/>
      <point x="544" y="1079"/>
      <point x="510" y="1045"/>
      <point x="510" y="1002" type="curve" smooth="yes"/>
      <point x="510" y="739" type="line" smooth="yes"/>
      <point x="510" y="719"/>
      <point x="493" y="702"/>
      <point x="473" y="702" type="curve" smooth="yes"/>
      <point x="229" y="702" type="line" smooth="yes"/>
      <point x="186" y="702"/>
      <point x="152" y="668"/>
      <point x="152" y="625" type="curve" smooth="yes"/>
      <point x="152" y="474" type="line" smooth="yes"/>
      <point x="152" y="431"/>
      <point x="186" y="397"/>
      <point x="229" y="397" type="curve" smooth="yes"/>
      <point x="473" y="397" type="line" smooth="yes"/>
      <point x="493" y="397"/>
      <point x="510" y="380"/>
      <point x="510" y="360" type="curve" smooth="yes"/>
      <point x="510" y="97" type="line" smooth="yes"/>
      <point x="510" y="54"/>
      <point x="544" y="20"/>
    </contour>
  </outline>
</glyph>
<glyph name="comma" format="1">
  <advance width="713"/>
  <unicode hex="002C"/>
  <outline>
    <contour>
      <point x="239" y="-322" type="curve" smooth="yes"/>
      <point x="377" y="-299"/>
      <point x="544" y="-212"/>
      <point x="544" y="25" type="curve" smooth="yes"/>
      <point x="544" y="273" type="line" smooth="yes"/>
      <point x="544" y="316"/>
      <point x="510" y="350"/>
      <point x="467" y="350" type="curve" smooth="yes"/>
      <point x="240" y="350" type="line" smooth="yes"/>
      <point x="197" y="350"/>
      <point x="163" y="316"/>
      <point x="163" y="273" type="curve" smooth="yes"/>
      <point x="163" y="70" type="line" smooth="yes"/>
      <point x="163" y="32"/>
      <point x="195" y="0"/>
      <point x="233" y="0" type="curve" smooth="yes"/>
      <point x="274" y="0" type="line" smooth="yes"/>
      <point x="289" y="0"/>
      <point x="305" y="-22"/>
      <point x="301" y="-37" type="curve"/>
      <point x="294" y="-58"/>
      <point x="277" y="-79"/>
      <point x="234" y="-101" type="curve" smooth="yes"/>
      <point x="186" y="-125"/>
      <point x="163" y="-162"/>
      <point x="163" y="-216" type="curve" smooth="yes"/>
      <point x="163" y="-257" type="line" smooth="yes"/>
      <point x="163" y="-293"/>
      <point x="204" y="-328"/>
    </contour>
  </outline>
</glyph>
<glyph name="period" format="1">
  <advance width="710"/>
  <unicode hex="002E"/>
  <outline>
    <contour>
      <point x="239" y="0" type="curve" smooth="yes"/>
      <point x="466" y="0" type="line" smooth="yes"/>
      <point x="509" y="0"/>
      <point x="543" y="34"/>
      <point x="543" y="77" type="curve" smooth="yes"/>
      <point x="543" y="273" type="line" smooth="yes"/>
      <point x="543" y="316"/>
      <point x="509" y="350"/>
      <point x="466" y="350" type="curve" smooth="yes"/>
      <point x="239" y="350" type="line" smooth="yes"/>
      <point x="196" y="350"/>
      <point x="162" y="316"/>
      <point x="162" y="273" type="curve" smooth="yes"/>
      <point x="162" y="77" type="line" smooth="yes"/>
      <point x="162" y="34"/>
      <point x="196" y="0"/>
    </contour>
  </outline>
</glyph>
<glyph name="slash" format="1">
  <advance width="1536"/>
  <unicode hex="002F"/>
  <outline>
    <contour>
      <point x="155" y="-205" type="curve" smooth="yes"/>
      <point x="318" y="-205" type="line" smooth="yes"/>
      <point x="340" y="-205"/>
      <point x="360" y="-191"/>
      <point x="368" y="-170" type="curve" smooth="yes"/>
      <point x="1055" y="1612" type="line" smooth="yes"/>
      <point x="1061" y="1629"/>
      <point x="1049" y="1647"/>
      <point x="1031" y="1647" type="curve" smooth="yes"/>
      <point x="868" y="1647" type="line" smooth="yes"/>
      <point x="846" y="1647"/>
      <point x="826" y="1633"/>
      <point x="818" y="1612" type="curve" smooth="yes"/>
      <point x="131" y="-170" type="line" smooth="yes"/>
      <point x="125" y="-187"/>
      <point x="137" y="-205"/>
    </contour>
  </outline>
</glyph>
<glyph name="A" format="1">
  <advance width="1974"/>
  <unicode hex="0041"/>
  <outline>
    <contour>
      <point x="194" y="0" type="curve" smooth="yes"/>
      <point x="298" y="0" type="line" smooth="yes"/>
      <point x="341" y="0"/>
      <point x="377" y="24"/>
      <point x="397" y="67" type="curve" smooth="yes"/>
      <point x="525" y="320" type="line"/>
      <point x="534" y="326" type="line"/>
      <point x="1447" y="326" type="line"/>
      <point x="1455" y="321" type="line"/>
      <point x="1576" y="67" type="line" smooth="yes"/>
      <point x="1596" y="23"/>
      <point x="1634" y="0"/>
      <point x="1677" y="0" type="curve" smooth="yes"/>
      <point x="1781" y="0" type="line" smooth="yes"/>
      <point x="1810" y="0"/>
      <point x="1825" y="11"/>
      <point x="1825" y="31" type="curve" smooth="yes"/>
      <point x="1825" y="41"/>
      <point x="1821" y="53"/>
      <point x="1814" y="67" type="curve" smooth="yes"/>
      <point x="1160" y="1371" type="line" smooth="yes"/>
      <point x="1139" y="1412"/>
      <point x="1106" y="1435"/>
      <point x="1066" y="1438" type="curve"/>
      <point x="946" y="1438" type="line"/>
      <point x="906" y="1435"/>
      <point x="873" y="1412"/>
      <point x="853" y="1371" type="curve" smooth="yes"/>
      <point x="159" y="67" type="line" smooth="yes"/>
      <point x="152" y="53"/>
      <point x="149" y="42"/>
      <point x="149" y="32" type="curve" smooth="yes"/>
      <point x="149" y="11"/>
      <point x="165" y="0"/>
    </contour>
    <contour>
      <point x="1378" y="481" type="curve" smooth="yes"/>
      <point x="610" y="481" type="line" smooth="yes"/>
      <point x="605" y="481"/>
      <point x="603" y="483"/>
      <point x="603" y="485" type="curve" smooth="yes"/>
      <point x="603" y="486"/>
      <point x="604" y="487"/>
      <point x="604" y="488" type="curve"/>
      <point x="1002" y="1278" type="line"/>
      <point x="1003" y="1278"/>
      <point x="1003" y="1280"/>
      <point x="1004" y="1280" type="curve" smooth="yes"/>
      <point x="1005" y="1280"/>
      <point x="1005" y="1279"/>
      <point x="1006" y="1278" type="curve"/>
      <point x="1381" y="489" type="line"/>
      <point x="1382" y="488"/>
      <point x="1383" y="486"/>
      <point x="1383" y="484" type="curve" smooth="yes"/>
      <point x="1383" y="482"/>
      <point x="1382" y="481"/>
    </contour>
  </outline>
</glyph>
<glyph name="B" format="1">
  <advance width="2354"/>
  <unicode hex="0042"/>
  <outline>
    <contour>
      <point x="276" y="0" type="curve" smooth="yes"/>
      <point x="1443" y="0" type="line" smooth="yes"/>
      <point x="1942" y="0"/>
      <point x="2176" y="96"/>
      <point x="2176" y="424" type="curve" smooth="yes"/>
      <point x="2176" y="590"/>
      <point x="2066" y="694"/>
      <point x="1912" y="757" type="curve" smooth="yes"/>
      <point x="1897" y="763"/>
      <point x="1896" y="780"/>
      <point x="1909" y="788" type="curve" smooth="yes"/>
      <point x="2011" y="848"/>
      <point x="2078" y="929"/>
      <point x="2078" y="1040" type="curve" smooth="yes"/>
      <point x="2078" y="1339"/>
      <point x="1916" y="1436"/>
      <point x="1488" y="1436" type="curve" smooth="yes"/>
      <point x="276" y="1436" type="line" smooth="yes"/>
      <point x="233" y="1436"/>
      <point x="199" y="1402"/>
      <point x="199" y="1359" type="curve" smooth="yes"/>
      <point x="199" y="77" type="line" smooth="yes"/>
      <point x="199" y="34"/>
      <point x="233" y="0"/>
    </contour>
    <contour>
      <point x="1514" y="189" type="curve" smooth="yes"/>
      <point x="464" y="189" type="line" smooth="yes"/>
      <point x="444" y="189"/>
      <point x="427" y="218"/>
      <point x="427" y="253" type="curve" smooth="yes"/>
      <point x="427" y="601" type="line" smooth="yes"/>
      <point x="427" y="635"/>
      <point x="444" y="664"/>
      <point x="464" y="664" type="curve" smooth="yes"/>
      <point x="1565" y="664" type="line" smooth="yes"/>
      <point x="1776" y="664"/>
      <point x="1942" y="623"/>
      <point x="1942" y="417" type="curve" smooth="yes"/>
      <point x="1942" y="187"/>
      <point x="1701" y="189"/>
    </contour>
    <contour>
      <point x="1582" y="834" type="curve" smooth="yes"/>
      <point x="464" y="834" type="line" smooth="yes"/>
      <point x="444" y="834"/>
      <point x="427" y="863"/>
      <point x="427" y="897" type="curve" smooth="yes"/>
      <point x="427" y="1210" type="line" smooth="yes"/>
      <point x="427" y="1244"/>
      <point x="444" y="1273"/>
      <point x="464" y="1273" type="curve" smooth="yes"/>
      <point x="1502" y="1273" type="line" smooth="yes"/>
      <point x="1668" y="1273"/>
      <point x="1863" y="1273"/>
      <point x="1863" y="1043" type="curve" smooth="yes"/>
      <point x="1863" y="873"/>
      <point x="1744" y="841"/>
    </contour>
  </outline>
</glyph>
<glyph name="C" format="1">
  <advance width="2371"/>
  <unicode hex="0043"/>
  <outline>
    <contour>
      <point x="1213" y="-41" type="curve" smooth="yes"/>
      <point x="1577" y="-41"/>
      <point x="2024" y="48"/>
      <point x="2194" y="392" type="curve"/>
      <point x="2178" y="431" type="line"/>
      <point x="2013" y="457" type="line"/>
      <point x="1982" y="462" type="line"/>
      <point x="1975" y="447"/>
      <point x="1968" y="434"/>
      <point x="1959" y="420" type="curve" smooth="yes"/>
      <point x="1819" y="189"/>
      <point x="1504" y="135"/>
      <point x="1213" y="135" type="curve" smooth="yes"/>
      <point x="826" y="135"/>
      <point x="392" y="231"/>
      <point x="392" y="721" type="curve" smooth="yes"/>
      <point x="392" y="1139"/>
      <point x="813" y="1299"/>
      <point x="1213" y="1299" type="curve" smooth="yes"/>
      <point x="1511" y="1299"/>
      <point x="1820" y="1211"/>
      <point x="1958" y="995" type="curve" smooth="yes"/>
      <point x="1964" y="986"/>
      <point x="1970" y="977"/>
      <point x="1975" y="967" type="curve"/>
      <point x="2009" y="972" type="line"/>
      <point x="2178" y="996" type="line"/>
      <point x="2192" y="1033" type="line"/>
      <point x="2020" y="1362"/>
      <point x="1577" y="1475"/>
      <point x="1213" y="1475" type="curve" smooth="yes"/>
      <point x="755" y="1475"/>
      <point x="163" y="1293"/>
      <point x="163" y="721" type="curve" smooth="yes"/>
      <point x="163" y="102"/>
      <point x="755" y="-41"/>
    </contour>
  </outline>
</glyph>
<glyph name="D" format="1">
  <advance width="2362"/>
  <unicode hex="0044"/>
  <outline>
    <contour>
      <point x="454" y="175" type="line"/>
      <point x="427" y="196" type="line"/>
      <point x="427" y="1245" type="line"/>
      <point x="448" y="1263" type="line"/>
      <point x="1248" y="1263" type="line" smooth="yes"/>
      <point x="1651" y="1263"/>
      <point x="1960" y="1139"/>
      <point x="1960" y="721" type="curve" smooth="yes"/>
      <point x="1960" y="231"/>
      <point x="1638" y="175"/>
      <point x="1248" y="175" type="curve" smooth="yes"/>
    </contour>
    <contour>
      <point x="266" y="0" type="curve" smooth="yes"/>
      <point x="1248" y="0" type="line" smooth="yes"/>
      <point x="1709" y="0"/>
      <point x="2189" y="102"/>
      <point x="2189" y="721" type="curve" smooth="yes"/>
      <point x="2189" y="1293"/>
      <point x="1709" y="1438"/>
      <point x="1248" y="1438" type="curve" smooth="yes"/>
      <point x="266" y="1438" type="line" smooth="yes"/>
      <point x="223" y="1438"/>
      <point x="199" y="1414"/>
      <point x="199" y="1371" type="curve" smooth="yes"/>
      <point x="199" y="67" type="line" smooth="yes"/>
      <point x="199" y="24"/>
      <point x="223" y="0"/>
    </contour>
  </outline>
</glyph>
<glyph name="E" format="1">
  <advance width="1757"/>
  <unicode hex="0045"/>
  <outline>
    <contour>
      <point x="266" y="0" type="curve" smooth="yes"/>
      <point x="1508" y="0" type="line" smooth="yes"/>
      <point x="1551" y="0"/>
      <point x="1575" y="34"/>
      <point x="1575" y="77" type="curve" smooth="yes"/>
      <point x="1575" y="110" type="line" smooth="yes"/>
      <point x="1575" y="153"/>
      <point x="1551" y="187"/>
      <point x="1508" y="187" type="curve" smooth="yes"/>
      <point x="441" y="187" type="line"/>
      <point x="427" y="204" type="line"/>
      <point x="427" y="630" type="line"/>
      <point x="447" y="647" type="line"/>
      <point x="1378" y="647" type="line" smooth="yes"/>
      <point x="1421" y="647"/>
      <point x="1445" y="681"/>
      <point x="1445" y="724" type="curve" smooth="yes"/>
      <point x="1445" y="751" type="line" smooth="yes"/>
      <point x="1445" y="794"/>
      <point x="1421" y="828"/>
      <point x="1378" y="828" type="curve" smooth="yes"/>
      <point x="441" y="828" type="line"/>
      <point x="427" y="854" type="line"/>
      <point x="427" y="1226" type="line" smooth="yes"/>
      <point x="427" y="1246"/>
      <point x="434" y="1251"/>
      <point x="454" y="1251" type="curve" smooth="yes"/>
      <point x="1508" y="1251" type="line" smooth="yes"/>
      <point x="1551" y="1251"/>
      <point x="1575" y="1285"/>
      <point x="1575" y="1328" type="curve" smooth="yes"/>
      <point x="1575" y="1361" type="line" smooth="yes"/>
      <point x="1575" y="1404"/>
      <point x="1551" y="1438"/>
      <point x="1508" y="1438" type="curve" smooth="yes"/>
      <point x="266" y="1438" type="line" smooth="yes"/>
      <point x="223" y="1438"/>
      <point x="199" y="1404"/>
      <point x="199" y="1361" type="curve" smooth="yes"/>
      <point x="199" y="67" type="line" smooth="yes"/>
      <point x="199" y="24"/>
      <point x="223" y="0"/>
    </contour>
  </outline>
</glyph>
<glyph name="F" format="1">
  <advance width="1724"/>
  <unicode hex="0046"/>
  <outline>
    <contour>
      <point x="266" y="0" type="curve" smooth="yes"/>
      <point x="360" y="0" type="line" smooth="yes"/>
      <point x="403" y="0"/>
      <point x="427" y="24"/>
      <point x="427" y="67" type="curve" smooth="yes"/>
      <point x="427" y="577" type="line"/>
      <point x="442" y="594" type="line"/>
      <point x="1378" y="594" type="line" smooth="yes"/>
      <point x="1421" y="594"/>
      <point x="1445" y="628"/>
      <point x="1445" y="671" type="curve" smooth="yes"/>
      <point x="1445" y="698" type="line" smooth="yes"/>
      <point x="1445" y="741"/>
      <point x="1421" y="775"/>
      <point x="1378" y="775" type="curve" smooth="yes"/>
      <point x="437" y="775" type="line"/>
      <point x="427" y="783" type="line"/>
      <point x="427" y="1226" type="line" smooth="yes"/>
      <point x="427" y="1246"/>
      <point x="434" y="1251"/>
      <point x="454" y="1251" type="curve" smooth="yes"/>
      <point x="1508" y="1251" type="line" smooth="yes"/>
      <point x="1551" y="1251"/>
      <point x="1575" y="1285"/>
      <point x="1575" y="1328" type="curve" smooth="yes"/>
      <point x="1575" y="1361" type="line" smooth="yes"/>
      <point x="1575" y="1404"/>
      <point x="1551" y="1438"/>
      <point x="1508" y="1438" type="curve" smooth="yes"/>
      <point x="266" y="1438" type="line" smooth="yes"/>
      <point x="223" y="1438"/>
      <point x="199" y="1404"/>
      <point x="199" y="1361" type="curve" smooth="yes"/>
      <point x="199" y="67" type="line" smooth="yes"/>
      <point x="199" y="24"/>
      <point x="223" y="0"/>
    </contour>
  </outline>
</glyph>
<glyph name="G" format="1">
  <advance width="2447"/>
  <unicode hex="0047"/>
  <outline>
    <contour>
      <point x="1213" y="-41" type="curve" smooth="yes"/>
      <point x="1495" y="-41"/>
      <point x="1895" y="16"/>
      <point x="2048" y="222" type="curve"/>
      <point x="2055" y="228"/>
      <point x="2060" y="230"/>
      <point x="2063" y="230" type="curve" smooth="yes"/>
      <point x="2069" y="230"/>
      <point x="2070" y="224"/>
      <point x="2071" y="217" type="curve" smooth="yes"/>
      <point x="2080" y="164"/>
      <point x="2090" y="100"/>
      <point x="2099" y="70" type="curve" smooth="yes"/>
      <point x="2112" y="27"/>
      <point x="2135" y="0"/>
      <point x="2181" y="0" type="curve" smooth="yes"/>
      <point x="2224" y="0"/>
      <point x="2258" y="34"/>
      <point x="2258" y="77" type="curve" smooth="yes"/>
      <point x="2258" y="683" type="line" smooth="yes"/>
      <point x="2258" y="726"/>
      <point x="2224" y="760"/>
      <point x="2181" y="760" type="curve" smooth="yes"/>
      <point x="1389" y="760" type="line" smooth="yes"/>
      <point x="1346" y="760"/>
      <point x="1312" y="726"/>
      <point x="1312" y="683" type="curve" smooth="yes"/>
      <point x="1312" y="659" type="line" smooth="yes"/>
      <point x="1312" y="616"/>
      <point x="1346" y="582"/>
      <point x="1389" y="582" type="curve" smooth="yes"/>
      <point x="2016" y="582" type="line" smooth="yes"/>
      <point x="2032" y="582"/>
      <point x="2038" y="563"/>
      <point x="2038" y="547" type="curve" smooth="yes"/>
      <point x="2038" y="299"/>
      <point x="1618" y="135"/>
      <point x="1213" y="135" type="curve" smooth="yes"/>
      <point x="826" y="135"/>
      <point x="392" y="231"/>
      <point x="392" y="721" type="curve" smooth="yes"/>
      <point x="392" y="1139"/>
      <point x="813" y="1299"/>
      <point x="1213" y="1299" type="curve" smooth="yes"/>
      <point x="1511" y="1299"/>
      <point x="1805" y="1215"/>
      <point x="1933" y="1028" type="curve" smooth="yes"/>
      <point x="1938" y="1020"/>
      <point x="1967" y="972"/>
      <point x="2024" y="972" type="curve" smooth="yes"/>
      <point x="2030" y="972"/>
      <point x="2178" y="998"/>
      <point x="2178" y="998" type="curve"/>
      <point x="2192" y="1033" type="line"/>
      <point x="2020" y="1362"/>
      <point x="1577" y="1475"/>
      <point x="1213" y="1475" type="curve" smooth="yes"/>
      <point x="755" y="1475"/>
      <point x="163" y="1293"/>
      <point x="163" y="721" type="curve" smooth="yes"/>
      <point x="163" y="102"/>
      <point x="755" y="-41"/>
    </contour>
  </outline>
</glyph>
<glyph name="J" format="1">
  <advance width="1281"/>
  <unicode hex="004A"/>
  <outline>
    <contour>
      <point x="167" y="-141" type="curve" smooth="yes"/>
      <point x="628" y="-141"/>
      <point x="1087" y="-68"/>
      <point x="1087" y="551" type="curve" smooth="yes"/>
      <point x="1087" y="1371" type="line" smooth="yes"/>
      <point x="1087" y="1414"/>
      <point x="1063" y="1438"/>
      <point x="1020" y="1438" type="curve" smooth="yes"/>
      <point x="926" y="1438" type="line" smooth="yes"/>
      <point x="883" y="1438"/>
      <point x="859" y="1414"/>
      <point x="859" y="1371" type="curve" smooth="yes"/>
      <point x="859" y="551" type="line" smooth="yes"/>
      <point x="859" y="61"/>
      <point x="557" y="35"/>
      <point x="167" y="35" type="curve" smooth="yes"/>
      <point x="154" y="35"/>
      <point x="136" y="21"/>
      <point x="136" y="-19" type="curve" smooth="yes"/>
      <point x="136" y="-22"/>
      <point x="136" y="-85"/>
      <point x="136" y="-88" type="curve" smooth="yes"/>
      <point x="136" y="-123"/>
      <point x="152" y="-141"/>
    </contour>
  </outline>
</glyph>
<glyph name="K" format="1">
  <advance width="1646"/>
  <unicode hex="004B"/>
  <outline>
    <contour>
      <point x="266" y="0" type="curve" smooth="yes"/>
      <point x="360" y="0" type="line" smooth="yes"/>
      <point x="403" y="0"/>
      <point x="427" y="24"/>
      <point x="427" y="67" type="curve" smooth="yes"/>
      <point x="427" y="735" type="line"/>
      <point x="1145" y="67" type="line" smooth="yes"/>
      <point x="1184" y="32"/>
      <point x="1214" y="0"/>
      <point x="1257" y="0" type="curve" smooth="yes"/>
      <point x="1425" y="0" type="line" smooth="yes"/>
      <point x="1468" y="0"/>
      <point x="1485" y="32"/>
      <point x="1447" y="67" type="curve" smooth="yes"/>
      <point x="712" y="736" type="line"/>
      <point x="699" y="748" type="line"/>
      <point x="711" y="759" type="line"/>
      <point x="1375" y="1365" type="line" smooth="yes"/>
      <point x="1413" y="1399"/>
      <point x="1393" y="1435"/>
      <point x="1350" y="1436" type="curve" smooth="yes"/>
      <point x="1193" y="1438" type="line" smooth="yes"/>
      <point x="1150" y="1439"/>
      <point x="1121" y="1410"/>
      <point x="1084" y="1376" type="curve" smooth="yes"/>
      <point x="427" y="762" type="line"/>
      <point x="427" y="1371" type="line" smooth="yes"/>
      <point x="427" y="1414"/>
      <point x="403" y="1438"/>
      <point x="360" y="1438" type="curve" smooth="yes"/>
      <point x="266" y="1438" type="line" smooth="yes"/>
      <point x="223" y="1438"/>
      <point x="199" y="1414"/>
      <point x="199" y="1371" type="curve" smooth="yes"/>
      <point x="199" y="67" type="line" smooth="yes"/>
      <point x="199" y="24"/>
      <point x="223" y="0"/>
    </contour>
  </outline>
</glyph>
<glyph name="L" format="1">
  <advance width="1405"/>
  <unicode hex="004C"/>
  <outline>
    <contour>
      <point x="266" y="0" type="curve" smooth="yes"/>
      <point x="1184" y="0" type="line" smooth="yes"/>
      <point x="1227" y="0"/>
      <point x="1251" y="24"/>
      <point x="1251" y="67" type="curve" smooth="yes"/>
      <point x="1251" y="102" type="line" smooth="yes"/>
      <point x="1251" y="145"/>
      <point x="1227" y="169"/>
      <point x="1184" y="169" type="curve" smooth="yes"/>
      <point x="464" y="169" type="line" smooth="yes"/>
      <point x="444" y="169"/>
      <point x="427" y="186"/>
      <point x="427" y="206" type="curve" smooth="yes"/>
      <point x="427" y="1371" type="line" smooth="yes"/>
      <point x="427" y="1414"/>
      <point x="403" y="1438"/>
      <point x="360" y="1438" type="curve" smooth="yes"/>
      <point x="266" y="1438" type="line" smooth="yes"/>
      <point x="223" y="1438"/>
      <point x="199" y="1414"/>
      <point x="199" y="1371" type="curve" smooth="yes"/>
      <point x="199" y="67" type="line" smooth="yes"/>
      <point x="199" y="24"/>
      <point x="223" y="0"/>
    </contour>
  </outline>
</glyph>
<glyph name="M" format="1">
  <advance width="2510.53164947"/>
  <unicode hex="004D"/>
  <outline>
    <contour>
      <point x="250.260779184" y="0" type="curve" smooth="yes"/>
      <point x="344.260779184" y="0" type="line" smooth="yes"/>
      <point x="387.260779184" y="0"/>
      <point x="412.260779184" y="24"/>
      <point x="415.260779184" y="67" type="curve" smooth="yes"/>
      <point x="508.260779184" y="1061" type="line"/>
      <point x="519.260779184" y="1065" type="line"/>
      <point x="1092.26077918" y="67" type="line" smooth="yes"/>
      <point x="1116.26077918" y="26"/>
      <point x="1151.26077918" y="2"/>
      <point x="1192.26077918" y="0" type="curve" smooth="yes"/>
      <point x="1298.26077918" y="0" type="line" smooth="yes"/>
      <point x="1339.26077918" y="2"/>
      <point x="1375.26077918" y="26"/>
      <point x="1399.26077918" y="67" type="curve" smooth="yes"/>
      <point x="1996.26077918" y="1078" type="line"/>
      <point x="2009.26077918" y="1077" type="line"/>
      <point x="2095.26077918" y="67" type="line" smooth="yes"/>
      <point x="2098.26077918" y="24"/>
      <point x="2124.26077918" y="0"/>
      <point x="2167.26077918" y="0" type="curve" smooth="yes"/>
      <point x="2261.26077918" y="0" type="line" smooth="yes"/>
      <point x="2304.26077918" y="0"/>
      <point x="2326.26077918" y="24"/>
      <point x="2323.26077918" y="67" type="curve" smooth="yes"/>
      <point x="2215.26077918" y="1371" type="line" smooth="yes"/>
      <point x="2212.26077918" y="1412"/>
      <point x="2189.26077918" y="1435"/>
      <point x="2150.26077918" y="1438" type="curve"/>
      <point x="2042.26077918" y="1438" type="line"/>
      <point x="2002.26077918" y="1435"/>
      <point x="1966.26077918" y="1412"/>
      <point x="1942.26077918" y="1371" type="curve" smooth="yes"/>
      <point x="1258.26077918" y="213" type="line"/>
      <point x="1237.26077918" y="213" type="line"/>
      <point x="573.260779184" y="1371" type="line" smooth="yes"/>
      <point x="549.260779184" y="1412"/>
      <point x="514.260779184" y="1435"/>
      <point x="474.260779184" y="1438" type="curve"/>
      <point x="366.260779184" y="1438" type="line"/>
      <point x="327.260779184" y="1435"/>
      <point x="305.260779184" y="1412"/>
      <point x="302.260779184" y="1371" type="curve" smooth="yes"/>
      <point x="187.260779184" y="67" type="line" smooth="yes"/>
      <point x="184.260779184" y="24"/>
      <point x="207.260779184" y="0"/>
    </contour>
  </outline>
</glyph>
<glyph name="N" format="1">
  <advance width="2126"/>
  <unicode hex="004E"/>
  <outline>
    <contour>
      <point x="1765" y="0" type="curve" smooth="yes"/>
      <point x="1859" y="0" type="line" smooth="yes"/>
      <point x="1902" y="0"/>
      <point x="1926" y="24"/>
      <point x="1926" y="67" type="curve" smooth="yes"/>
      <point x="1926" y="1371" type="line" smooth="yes"/>
      <point x="1926" y="1414"/>
      <point x="1902" y="1438"/>
      <point x="1859" y="1438" type="curve" smooth="yes"/>
      <point x="1765" y="1438" type="line" smooth="yes"/>
      <point x="1722" y="1438"/>
      <point x="1698" y="1414"/>
      <point x="1698" y="1371" type="curve" smooth="yes"/>
      <point x="1698" y="320" type="line"/>
      <point x="1685" y="307" type="line"/>
      <point x="411" y="1420" type="line"/>
      <point x="400" y="1432"/>
      <point x="383" y="1438"/>
      <point x="361" y="1438" type="curve" smooth="yes"/>
      <point x="267" y="1438" type="line" smooth="yes"/>
      <point x="224" y="1438"/>
      <point x="200" y="1414"/>
      <point x="200" y="1371" type="curve" smooth="yes"/>
      <point x="200" y="67" type="line" smooth="yes"/>
      <point x="200" y="24"/>
      <point x="224" y="0"/>
      <point x="267" y="0" type="curve" smooth="yes"/>
      <point x="361" y="0" type="line" smooth="yes"/>
      <point x="404" y="0"/>
      <point x="428" y="24"/>
      <point x="428" y="67" type="curve" smooth="yes"/>
      <point x="428" y="1113" type="line"/>
      <point x="442" y="1122" type="line"/>
      <point x="1714" y="19" type="line"/>
      <point x="1725" y="6"/>
      <point x="1743" y="0"/>
    </contour>
  </outline>
</glyph>
<glyph name="O" format="1">
  <advance width="2375"/>
  <unicode hex="004F"/>
  <outline>
    <contour>
      <point x="1187" y="135" type="curve" smooth="yes"/>
      <point x="800" y="135"/>
      <point x="396" y="231"/>
      <point x="396" y="721" type="curve" smooth="yes"/>
      <point x="396" y="1139"/>
      <point x="787" y="1299"/>
      <point x="1187" y="1299" type="curve" smooth="yes"/>
      <point x="1590" y="1299"/>
      <point x="1979" y="1139"/>
      <point x="1979" y="721" type="curve" smooth="yes"/>
      <point x="1979" y="231"/>
      <point x="1577" y="135"/>
    </contour>
    <contour>
      <point x="1187" y="-41" type="curve" smooth="yes"/>
      <point x="1648" y="-41"/>
      <point x="2208" y="102"/>
      <point x="2208" y="721" type="curve" smooth="yes"/>
      <point x="2208" y="1293"/>
      <point x="1648" y="1475"/>
      <point x="1187" y="1475" type="curve" smooth="yes"/>
      <point x="729" y="1475"/>
      <point x="167" y="1293"/>
      <point x="167" y="721" type="curve" smooth="yes"/>
      <point x="167" y="102"/>
      <point x="729" y="-41"/>
    </contour>
  </outline>
</glyph>
<glyph name="P" format="1">
  <advance width="2199"/>
  <unicode hex="0050"/>
  <outline>
    <contour>
      <point x="266" y="0" type="curve" smooth="yes"/>
      <point x="360" y="0" type="line" smooth="yes"/>
      <point x="403" y="0"/>
      <point x="427" y="24"/>
      <point x="427" y="67" type="curve" smooth="yes"/>
      <point x="427" y="422" type="line"/>
      <point x="446" y="442" type="line"/>
      <point x="1117" y="442" type="line" smooth="yes"/>
      <point x="1648" y="442"/>
      <point x="2029" y="444"/>
      <point x="2029" y="964" type="curve" smooth="yes"/>
      <point x="2029" y="1438"/>
      <point x="1519" y="1438"/>
      <point x="1058" y="1438" type="curve" smooth="yes"/>
      <point x="266" y="1438" type="line" smooth="yes"/>
      <point x="223" y="1438"/>
      <point x="199" y="1414"/>
      <point x="199" y="1371" type="curve" smooth="yes"/>
      <point x="199" y="67" type="line" smooth="yes"/>
      <point x="199" y="24"/>
      <point x="223" y="0"/>
    </contour>
    <contour>
      <point x="1108" y="618" type="curve" smooth="yes"/>
      <point x="443" y="618" type="line"/>
      <point x="427" y="639" type="line"/>
      <point x="427" y="1246" type="line"/>
      <point x="444" y="1262" type="line"/>
      <point x="1058" y="1262" type="line" smooth="yes"/>
      <point x="1461" y="1262"/>
      <point x="1800" y="1261"/>
      <point x="1800" y="964" type="curve" smooth="yes"/>
      <point x="1800" y="618"/>
      <point x="1605" y="618"/>
    </contour>
  </outline>
</glyph>
<glyph name="Q" format="1">
  <advance width="2311"/>
  <unicode hex="0051"/>
  <outline>
    <contour>
      <point x="1920" y="-415" type="curve" smooth="yes"/>
      <point x="1956" y="-389" type="line" smooth="yes"/>
      <point x="1990" y="-364"/>
      <point x="1998" y="-316"/>
      <point x="1971" y="-282" type="curve" smooth="yes"/>
      <point x="1701" y="90" type="line" smooth="yes"/>
      <point x="1675" y="124"/>
      <point x="1628" y="131"/>
      <point x="1592" y="106" type="curve" smooth="yes"/>
      <point x="1556" y="80" type="line" smooth="yes"/>
      <point x="1522" y="55"/>
      <point x="1514" y="7"/>
      <point x="1541" y="-27" type="curve" smooth="yes"/>
      <point x="1811" y="-399" type="line" smooth="yes"/>
      <point x="1837" y="-433"/>
      <point x="1884" y="-440"/>
    </contour>
    <component base="O" xOffset="-60"/>
  </outline>
</glyph>
<glyph name="R" format="1">
  <advance width="2259"/>
  <unicode hex="0052"/>
  <outline>
    <contour>
      <point x="266" y="0" type="curve" smooth="yes"/>
      <point x="360" y="0" type="line" smooth="yes"/>
      <point x="403" y="0"/>
      <point x="427" y="24"/>
      <point x="427" y="67" type="curve" smooth="yes"/>
      <point x="427" y="522" type="line"/>
      <point x="443" y="538" type="line"/>
      <point x="1284" y="538" type="line" smooth="yes"/>
      <point x="1376" y="538"/>
      <point x="1603" y="536"/>
      <point x="1698" y="333" type="curve" smooth="yes"/>
      <point x="1822" y="67" type="line"/>
      <point x="1844" y="28"/>
      <point x="1852" y="0"/>
      <point x="1895" y="0" type="curve" smooth="yes"/>
      <point x="2000" y="0" type="line" smooth="yes"/>
      <point x="2043" y="0"/>
      <point x="2083" y="27"/>
      <point x="2061" y="67" type="curve"/>
      <point x="1937" y="347" type="line" smooth="yes"/>
      <point x="1861" y="517"/>
      <point x="1742" y="559"/>
      <point x="1684" y="578" type="curve"/>
      <point x="1680" y="580"/>
      <point x="1679" y="582"/>
      <point x="1679" y="583" type="curve" smooth="yes"/>
      <point x="1679" y="585"/>
      <point x="1682" y="585"/>
      <point x="1685" y="586" type="curve"/>
      <point x="1899" y="632"/>
      <point x="2029" y="725"/>
      <point x="2029" y="1014" type="curve" smooth="yes"/>
      <point x="2029" y="1439"/>
      <point x="1584" y="1438"/>
      <point x="1058" y="1438" type="curve" smooth="yes"/>
      <point x="266" y="1438" type="line" smooth="yes"/>
      <point x="223" y="1438"/>
      <point x="199" y="1414"/>
      <point x="199" y="1371" type="curve" smooth="yes"/>
      <point x="199" y="67" type="line" smooth="yes"/>
      <point x="199" y="24"/>
      <point x="223" y="0"/>
    </contour>
    <contour>
      <point x="1108" y="708" type="curve" smooth="yes"/>
      <point x="443" y="708" type="line"/>
      <point x="427" y="721" type="line"/>
      <point x="427" y="1248" type="line"/>
      <point x="444" y="1262" type="line"/>
      <point x="1058" y="1262" type="line" smooth="yes"/>
      <point x="1506" y="1262"/>
      <point x="1800" y="1262"/>
      <point x="1800" y="1014" type="curve" smooth="yes"/>
      <point x="1800" y="708"/>
      <point x="1605" y="708"/>
    </contour>
  </outline>
</glyph>
<glyph name="S" format="1">
  <advance width="2405"/>
  <unicode hex="0053"/>
  <outline>
    <contour>
      <point x="1210" y="-41" type="curve" smooth="yes"/>
      <point x="1844" y="-41"/>
      <point x="2233" y="30"/>
      <point x="2233" y="448" type="curve" smooth="yes"/>
      <point x="2233" y="791"/>
      <point x="1786" y="842"/>
      <point x="1359" y="842" type="curve" smooth="yes"/>
      <point x="551" y="842"/>
      <point x="441" y="935"/>
      <point x="441" y="1066" type="curve" smooth="yes"/>
      <point x="441" y="1223"/>
      <point x="667" y="1300"/>
      <point x="1165" y="1300" type="curve" smooth="yes"/>
      <point x="1674" y="1300"/>
      <point x="1919" y="1174"/>
      <point x="1990" y="1174" type="curve" smooth="yes"/>
      <point x="2062" y="1174"/>
      <point x="2072" y="1233"/>
      <point x="2072" y="1233" type="curve"/>
      <point x="2077" y="1242"/>
      <point x="2079" y="1253"/>
      <point x="2079" y="1263" type="curve" smooth="yes"/>
      <point x="2079" y="1291"/>
      <point x="2062" y="1319"/>
      <point x="2035" y="1329" type="curve" smooth="yes"/>
      <point x="1769" y="1431"/>
      <point x="1521" y="1475"/>
      <point x="1167" y="1475" type="curve" smooth="yes"/>
      <point x="665" y="1475"/>
      <point x="187" y="1409"/>
      <point x="187" y="1043" type="curve" smooth="yes"/>
      <point x="187" y="717"/>
      <point x="613" y="647"/>
      <point x="1306" y="647" type="curve" smooth="yes"/>
      <point x="1925" y="647"/>
      <point x="2008" y="577"/>
      <point x="2008" y="422" type="curve" smooth="yes"/>
      <point x="2008" y="261"/>
      <point x="1882" y="135"/>
      <point x="1235" y="135" type="curve" smooth="yes"/>
      <point x="650" y="135"/>
      <point x="349" y="271"/>
      <point x="273" y="271" type="curve" smooth="yes"/>
      <point x="239" y="271"/>
      <point x="214" y="258"/>
      <point x="199" y="226" type="curve"/>
      <point x="199" y="226"/>
      <point x="184" y="182"/>
      <point x="184" y="173" type="curve" smooth="yes"/>
      <point x="184" y="144"/>
      <point x="202" y="116"/>
      <point x="230" y="106" type="curve" smooth="yes"/>
      <point x="558" y="-11"/>
      <point x="870" y="-41"/>
    </contour>
  </outline>
</glyph>
<glyph name="T" format="1">
  <advance width="1705"/>
  <unicode hex="0054"/>
  <outline>
    <contour>
      <point x="807" y="0" type="curve" smooth="yes"/>
      <point x="901" y="0" type="line" smooth="yes"/>
      <point x="944" y="0"/>
      <point x="968" y="24"/>
      <point x="968" y="67" type="curve" smooth="yes"/>
      <point x="968" y="1226" type="line" smooth="yes"/>
      <point x="968" y="1246"/>
      <point x="975" y="1251"/>
      <point x="995" y="1251" type="curve" smooth="yes"/>
      <point x="1525" y="1251" type="line" smooth="yes"/>
      <point x="1568" y="1251"/>
      <point x="1592" y="1285"/>
      <point x="1592" y="1328" type="curve" smooth="yes"/>
      <point x="1592" y="1361" type="line" smooth="yes"/>
      <point x="1592" y="1404"/>
      <point x="1568" y="1438"/>
      <point x="1525" y="1438" type="curve" smooth="yes"/>
      <point x="180" y="1438" type="line" smooth="yes"/>
      <point x="137" y="1438"/>
      <point x="113" y="1404"/>
      <point x="113" y="1361" type="curve" smooth="yes"/>
      <point x="113" y="1328" type="line" smooth="yes"/>
      <point x="113" y="1285"/>
      <point x="137" y="1251"/>
      <point x="180" y="1251" type="curve" smooth="yes"/>
      <point x="713" y="1251" type="line" smooth="yes"/>
      <point x="733" y="1251"/>
      <point x="740" y="1246"/>
      <point x="740" y="1226" type="curve" smooth="yes"/>
      <point x="740" y="67" type="line" smooth="yes"/>
      <point x="740" y="24"/>
      <point x="764" y="0"/>
    </contour>
  </outline>
</glyph>
<glyph name="U" format="1">
  <advance width="2420"/>
  <unicode hex="0055"/>
  <outline>
    <contour>
      <point x="1210" y="-41" type="curve" smooth="yes"/>
      <point x="1671" y="-41"/>
      <point x="2230" y="32"/>
      <point x="2230" y="651" type="curve" smooth="yes"/>
      <point x="2230" y="1371" type="line" smooth="yes"/>
      <point x="2230" y="1414"/>
      <point x="2206" y="1438"/>
      <point x="2163" y="1438" type="curve" smooth="yes"/>
      <point x="2069" y="1438" type="line" smooth="yes"/>
      <point x="2026" y="1438"/>
      <point x="2002" y="1414"/>
      <point x="2002" y="1371" type="curve" smooth="yes"/>
      <point x="2002" y="651" type="line" smooth="yes"/>
      <point x="2002" y="161"/>
      <point x="1600" y="135"/>
      <point x="1210" y="135" type="curve" smooth="yes"/>
      <point x="823" y="135"/>
      <point x="419" y="161"/>
      <point x="419" y="651" type="curve" smooth="yes"/>
      <point x="419" y="1371" type="line" smooth="yes"/>
      <point x="419" y="1414"/>
      <point x="395" y="1438"/>
      <point x="352" y="1438" type="curve" smooth="yes"/>
      <point x="258" y="1438" type="line" smooth="yes"/>
      <point x="215" y="1438"/>
      <point x="190" y="1414"/>
      <point x="190" y="1371" type="curve" smooth="yes"/>
      <point x="190" y="651" type="line" smooth="yes"/>
      <point x="190" y="32"/>
      <point x="752" y="-41"/>
    </contour>
  </outline>
</glyph>
<glyph name="V" format="1">
  <advance width="2020.52270917"/>
  <unicode hex="0056"/>
  <outline>
    <contour>
      <point x="987.485388678" y="0" type="curve"/>
      <point x="1095.48538868" y="0" type="line"/>
      <point x="1135.48538868" y="3"/>
      <point x="1168.48538868" y="26"/>
      <point x="1189.48538868" y="67" type="curve" smooth="yes"/>
      <point x="1880.48538868" y="1371" type="line" smooth="yes"/>
      <point x="1902.48538868" y="1414"/>
      <point x="1891.48538868" y="1438"/>
      <point x="1848.48538868" y="1438" type="curve" smooth="yes"/>
      <point x="1734.48538868" y="1438" type="line" smooth="yes"/>
      <point x="1691.48538868" y="1438"/>
      <point x="1653.48538868" y="1414"/>
      <point x="1632.48538868" y="1371" type="curve" smooth="yes"/>
      <point x="1042.48538868" y="192" type="line"/>
      <point x="400.485388678" y="1371" type="line" smooth="yes"/>
      <point x="376.485388678" y="1414"/>
      <point x="337.485388678" y="1438"/>
      <point x="294.485388678" y="1438" type="curve" smooth="yes"/>
      <point x="170.485388678" y="1438" type="line" smooth="yes"/>
      <point x="127.485388678" y="1438"/>
      <point x="117.485388678" y="1414"/>
      <point x="142.485388678" y="1371" type="curve" smooth="yes"/>
      <point x="888.485388678" y="67" type="line" smooth="yes"/>
      <point x="912.485388678" y="26"/>
      <point x="947.485388678" y="3"/>
    </contour>
  </outline>
</glyph>
<glyph name="W" format="1">
  <advance width="3369.52270917"/>
  <unicode hex="0057"/>
  <outline>
    <contour>
      <point x="912.485388678" y="0" type="curve"/>
      <point x="1030.48538868" y="0" type="line"/>
      <point x="1070.48538868" y="3"/>
      <point x="1104.48538868" y="26"/>
      <point x="1124.48538868" y="67" type="curve" smooth="yes"/>
      <point x="1689.48538868" y="1251" type="line"/>
      <point x="2302.48538868" y="67" type="line" smooth="yes"/>
      <point x="2324.48538868" y="25"/>
      <point x="2361.48538868" y="3"/>
      <point x="2401.48538868" y="0" type="curve"/>
      <point x="2519.48538868" y="0" type="line"/>
      <point x="2559.48538868" y="3"/>
      <point x="2592.48538868" y="26"/>
      <point x="2613.48538868" y="67" type="curve" smooth="yes"/>
      <point x="3224.48538868" y="1371" type="line" smooth="yes"/>
      <point x="3246.48538868" y="1414"/>
      <point x="3235.48538868" y="1438"/>
      <point x="3192.48538868" y="1438" type="curve" smooth="yes"/>
      <point x="3078.48538868" y="1438" type="line" smooth="yes"/>
      <point x="3035.48538868" y="1438"/>
      <point x="2997.48538868" y="1414"/>
      <point x="2976.48538868" y="1371" type="curve" smooth="yes"/>
      <point x="2466.48538868" y="192" type="line"/>
      <point x="1854.48538868" y="1371" type="line" smooth="yes"/>
      <point x="1830.48538868" y="1414"/>
      <point x="1791.48538868" y="1438"/>
      <point x="1748.48538868" y="1438" type="curve" smooth="yes"/>
      <point x="1624.48538868" y="1438" type="line" smooth="yes"/>
      <point x="1586.48538868" y="1438"/>
      <point x="1548.48538868" y="1414"/>
      <point x="1527.48538868" y="1371" type="curve" smooth="yes"/>
      <point x="967.485388678" y="192" type="line"/>
      <point x="405.485388678" y="1371" type="line"/>
      <point x="381.485388678" y="1414"/>
      <point x="342.485388678" y="1438"/>
      <point x="299.485388678" y="1438" type="curve" smooth="yes"/>
      <point x="175.485388678" y="1438" type="line" smooth="yes"/>
      <point x="132.485388678" y="1438"/>
      <point x="122.485388678" y="1414"/>
      <point x="147.485388678" y="1371" type="curve"/>
      <point x="813.485388678" y="67" type="line"/>
      <point x="837.485388678" y="26"/>
      <point x="872.485388678" y="3"/>
    </contour>
  </outline>
</glyph>
<glyph name="X" format="1">
  <advance width="2069"/>
  <unicode hex="0058"/>
  <outline>
    <contour>
      <point x="195" y="0" type="curve" smooth="yes"/>
      <point x="329" y="0" type="line" smooth="yes"/>
      <point x="372" y="0"/>
      <point x="417" y="24"/>
      <point x="456" y="67" type="curve"/>
      <point x="1048" y="617" type="line"/>
      <point x="1598" y="67" type="line" smooth="yes"/>
      <point x="1641" y="24"/>
      <point x="1688" y="0"/>
      <point x="1731" y="0" type="curve" smooth="yes"/>
      <point x="1875" y="0" type="line" smooth="yes"/>
      <point x="1897" y="0"/>
      <point x="1908" y="6"/>
      <point x="1908" y="18" type="curve" smooth="yes"/>
      <point x="1908" y="29"/>
      <point x="1897" y="46"/>
      <point x="1876" y="67" type="curve" smooth="yes"/>
      <point x="1192" y="750" type="line"/>
      <point x="1860" y="1371" type="line"/>
      <point x="1878" y="1391"/>
      <point x="1887" y="1407"/>
      <point x="1887" y="1418" type="curve" smooth="yes"/>
      <point x="1887" y="1431"/>
      <point x="1876" y="1438"/>
      <point x="1853" y="1438" type="curve" smooth="yes"/>
      <point x="1709" y="1438" type="line" smooth="yes"/>
      <point x="1666" y="1438"/>
      <point x="1621" y="1414"/>
      <point x="1582" y="1371" type="curve"/>
      <point x="1060" y="882" type="line"/>
      <point x="570" y="1371" type="line" smooth="yes"/>
      <point x="527" y="1414"/>
      <point x="480" y="1438"/>
      <point x="437" y="1438" type="curve" smooth="yes"/>
      <point x="293" y="1438" type="line" smooth="yes"/>
      <point x="271" y="1438"/>
      <point x="260" y="1432"/>
      <point x="260" y="1420" type="curve" smooth="yes"/>
      <point x="260" y="1409"/>
      <point x="271" y="1392"/>
      <point x="292" y="1371" type="curve" smooth="yes"/>
      <point x="916" y="748" type="line"/>
      <point x="188" y="67" type="line"/>
      <point x="170" y="47"/>
      <point x="161" y="31"/>
      <point x="161" y="20" type="curve" smooth="yes"/>
      <point x="161" y="7"/>
      <point x="172" y="0"/>
    </contour>
  </outline>
</glyph>
<glyph name="Y" format="1">
  <advance width="1737"/>
  <unicode hex="0059"/>
  <outline>
    <contour>
      <point x="823" y="0" type="curve" smooth="yes"/>
      <point x="917" y="0" type="line" smooth="yes"/>
      <point x="960" y="0"/>
      <point x="984" y="24"/>
      <point x="984" y="67" type="curve" smooth="yes"/>
      <point x="984" y="717" type="line"/>
      <point x="1605" y="1371" type="line"/>
      <point x="1625" y="1389"/>
      <point x="1632" y="1407"/>
      <point x="1632" y="1418" type="curve" smooth="yes"/>
      <point x="1632" y="1431"/>
      <point x="1621" y="1438"/>
      <point x="1598" y="1438" type="curve" smooth="yes"/>
      <point x="1454" y="1438" type="line" smooth="yes"/>
      <point x="1411" y="1438"/>
      <point x="1366" y="1414"/>
      <point x="1327" y="1371" type="curve" smooth="yes"/>
      <point x="875" y="882" type="line"/>
      <point x="415" y="1371" type="line" smooth="yes"/>
      <point x="372" y="1414"/>
      <point x="325" y="1438"/>
      <point x="282" y="1438" type="curve" smooth="yes"/>
      <point x="138" y="1438" type="line" smooth="yes"/>
      <point x="116" y="1438"/>
      <point x="105" y="1432"/>
      <point x="105" y="1420" type="curve" smooth="yes"/>
      <point x="105" y="1409"/>
      <point x="115" y="1391"/>
      <point x="137" y="1371" type="curve"/>
      <point x="756" y="713" type="line"/>
      <point x="756" y="67" type="line" smooth="yes"/>
      <point x="756" y="24"/>
      <point x="780" y="0"/>
    </contour>
  </outline>
</glyph>
<glyph name="Z" format="1">
  <advance width="1746"/>
  <unicode hex="005A"/>
  <outline>
    <contour>
      <point x="244" y="0" type="curve" smooth="yes"/>
      <point x="1502" y="0" type="line" smooth="yes"/>
      <point x="1545" y="0"/>
      <point x="1569" y="34"/>
      <point x="1569" y="77" type="curve" smooth="yes"/>
      <point x="1569" y="110" type="line" smooth="yes"/>
      <point x="1569" y="153"/>
      <point x="1545" y="187"/>
      <point x="1502" y="187" type="curve" smooth="yes"/>
      <point x="519" y="187" type="line"/>
      <point x="513" y="202" type="line"/>
      <point x="1516" y="1226" type="line" smooth="yes"/>
      <point x="1531" y="1240"/>
      <point x="1549" y="1285"/>
      <point x="1549" y="1328" type="curve" smooth="yes"/>
      <point x="1549" y="1361" type="line" smooth="yes"/>
      <point x="1549" y="1404"/>
      <point x="1525" y="1438"/>
      <point x="1482" y="1438" type="curve" smooth="yes"/>
      <point x="254" y="1438" type="line" smooth="yes"/>
      <point x="211" y="1438"/>
      <point x="187" y="1404"/>
      <point x="187" y="1361" type="curve" smooth="yes"/>
      <point x="187" y="1328" type="line" smooth="yes"/>
      <point x="187" y="1285"/>
      <point x="211" y="1251"/>
      <point x="254" y="1251" type="curve" smooth="yes"/>
      <point x="1207" y="1251" type="line" smooth="yes"/>
      <point x="1227" y="1251"/>
      <point x="1234" y="1246"/>
      <point x="1234" y="1226" type="curve"/>
      <point x="198" y="169" type="line" smooth="yes"/>
      <point x="184" y="155"/>
      <point x="177" y="134"/>
      <point x="177" y="110" type="curve" smooth="yes"/>
      <point x="177" y="77" type="line" smooth="yes"/>
      <point x="177" y="34"/>
      <point x="201" y="0"/>
    </contour>
  </outline>
</glyph>
<glyph name="bracketleft" format="1">
  <advance width="1657"/>
  <unicode hex="005B"/>
  <outline>
    <contour>
      <point x="279" y="-65" type="curve" smooth="yes"/>
      <point x="851" y="-65" type="line" smooth="yes"/>
      <point x="894" y="-65"/>
      <point x="918" y="-51"/>
      <point x="918" y="-8" type="curve" smooth="yes"/>
      <point x="918" y="41" type="line" smooth="yes"/>
      <point x="918" y="84"/>
      <point x="894" y="98"/>
      <point x="851" y="98" type="curve" smooth="yes"/>
      <point x="457" y="98" type="line" smooth="yes"/>
      <point x="437" y="98"/>
      <point x="430" y="105"/>
      <point x="430" y="125" type="curve" smooth="yes"/>
      <point x="430" y="1317" type="line" smooth="yes"/>
      <point x="430" y="1337"/>
      <point x="437" y="1344"/>
      <point x="457" y="1344" type="curve" smooth="yes"/>
      <point x="851" y="1344" type="line" smooth="yes"/>
      <point x="894" y="1344"/>
      <point x="918" y="1358"/>
      <point x="918" y="1401" type="curve" smooth="yes"/>
      <point x="918" y="1460" type="line" smooth="yes"/>
      <point x="918" y="1503"/>
      <point x="894" y="1517"/>
      <point x="851" y="1517" type="curve" smooth="yes"/>
      <point x="279" y="1517" type="line" smooth="yes"/>
      <point x="236" y="1517"/>
      <point x="202" y="1483"/>
      <point x="202" y="1440" type="curve" smooth="yes"/>
      <point x="202" y="12" type="line" smooth="yes"/>
      <point x="202" y="-31"/>
      <point x="236" y="-65"/>
    </contour>
  </outline>
</glyph>
<glyph name="backslash" format="1">
  <advance width="1537"/>
  <unicode hex="005C"/>
  <outline>
    <contour>
      <point x="843" y="-207" type="curve" smooth="yes"/>
      <point x="1375" y="-205" type="line" smooth="yes"/>
      <point x="1393" y="-205"/>
      <point x="1405" y="-187"/>
      <point x="1399" y="-170" type="curve" smooth="yes"/>
      <point x="712" y="1612" type="line" smooth="yes"/>
      <point x="704" y="1633"/>
      <point x="684" y="1647"/>
      <point x="662" y="1647" type="curve" smooth="yes"/>
      <point x="130" y="1647" type="line" smooth="yes"/>
      <point x="112" y="1647"/>
      <point x="100" y="1629"/>
      <point x="106" y="1612" type="curve" smooth="yes"/>
      <point x="793" y="-172" type="line" smooth="yes"/>
      <point x="801" y="-193"/>
      <point x="821" y="-207"/>
    </contour>
  </outline>
</glyph>
<glyph name="bracketright" format="1">
  <advance width="1659"/>
  <unicode hex="005D"/>
  <outline>
    <contour>
      <point x="269" y="1517" type="line" smooth="yes"/>
      <point x="226" y="1517"/>
      <point x="202" y="1503"/>
      <point x="202" y="1460" type="curve" smooth="yes"/>
      <point x="202" y="1411" type="line" smooth="yes"/>
      <point x="202" y="1368"/>
      <point x="226" y="1354"/>
      <point x="269" y="1354" type="curve" smooth="yes"/>
      <point x="663" y="1354" type="line" smooth="yes"/>
      <point x="683" y="1354"/>
      <point x="690" y="1347"/>
      <point x="690" y="1327" type="curve" smooth="yes"/>
      <point x="690" y="135" type="line" smooth="yes"/>
      <point x="690" y="115"/>
      <point x="683" y="108"/>
      <point x="663" y="108" type="curve" smooth="yes"/>
      <point x="269" y="108" type="line" smooth="yes"/>
      <point x="226" y="108"/>
      <point x="202" y="94"/>
      <point x="202" y="51" type="curve" smooth="yes"/>
      <point x="202" y="-8" type="line" smooth="yes"/>
      <point x="202" y="-51"/>
      <point x="226" y="-65"/>
      <point x="269" y="-65" type="curve" smooth="yes"/>
      <point x="841" y="-65" type="line" smooth="yes"/>
      <point x="884" y="-65"/>
      <point x="918" y="-31"/>
      <point x="918" y="12" type="curve" smooth="yes"/>
      <point x="918" y="1440" type="line" smooth="yes"/>
      <point x="918" y="1483"/>
      <point x="884" y="1517"/>
      <point x="841" y="1517" type="curve" smooth="yes"/>
    </contour>
  </outline>
</glyph>
<glyph name="grave" format="1">
  <advance width="725"/>
  <unicode hex="0060"/>
  <outline>
    <contour>
      <point x="550" y="1217" type="curve" smooth="yes"/>
      <point x="582" y="1217" type="line" smooth="yes"/>
      <point x="609" y="1217"/>
      <point x="621" y="1249"/>
      <point x="600" y="1266" type="curve" smooth="yes"/>
      <point x="442" y="1401" type="line" smooth="yes"/>
      <point x="406" y="1431"/>
      <point x="353" y="1450"/>
      <point x="306" y="1450" type="curve" smooth="yes"/>
      <point x="99" y="1450" type="line" smooth="yes"/>
      <point x="79" y="1450"/>
      <point x="73" y="1424"/>
      <point x="90" y="1415" type="curve" smooth="yes"/>
      <point x="405" y="1252" type="line" smooth="yes"/>
      <point x="445" y="1231"/>
      <point x="504" y="1217"/>
    </contour>
  </outline>
</glyph>
<glyph name="a" format="1">
  <advance width="1836"/>
  <unicode hex="0061"/>
  <outline>
    <contour>
      <point x="692" y="-41" type="curve" smooth="yes"/>
      <point x="1058" y="-41"/>
      <point x="1311" y="116"/>
      <point x="1426" y="269" type="curve"/>
      <point x="1432" y="276"/>
      <point x="1437" y="280"/>
      <point x="1442" y="280" type="curve" smooth="yes"/>
      <point x="1448" y="280"/>
      <point x="1451" y="261"/>
      <point x="1456" y="252" type="curve"/>
      <point x="1467" y="229"/>
      <point x="1490" y="164"/>
      <point x="1514" y="100" type="curve" smooth="yes"/>
      <point x="1529" y="60"/>
      <point x="1541" y="0"/>
      <point x="1581" y="0" type="curve" smooth="yes"/>
      <point x="1599" y="0" type="line" smooth="yes"/>
      <point x="1634" y="0"/>
      <point x="1650" y="28"/>
      <point x="1650" y="63" type="curve" smooth="yes"/>
      <point x="1650" y="631" type="line" smooth="yes"/>
      <point x="1650" y="929"/>
      <point x="1503" y="1053"/>
      <point x="916" y="1053" type="curve" smooth="yes"/>
      <point x="509" y="1053"/>
      <point x="263" y="992"/>
      <point x="210" y="846" type="curve" smooth="yes"/>
      <point x="206" y="835"/>
      <point x="199" y="820"/>
      <point x="199" y="802" type="curve" smooth="yes"/>
      <point x="199" y="785"/>
      <point x="214" y="767"/>
      <point x="231" y="765" type="curve" smooth="yes"/>
      <point x="355" y="748" type="line" smooth="yes"/>
      <point x="364" y="747"/>
      <point x="367" y="746"/>
      <point x="373" y="746" type="curve" smooth="yes"/>
      <point x="394" y="746"/>
      <point x="428" y="778"/>
      <point x="449" y="800" type="curve" smooth="yes"/>
      <point x="540" y="893"/>
      <point x="834" y="894"/>
      <point x="918" y="894" type="curve" smooth="yes"/>
      <point x="1411" y="894"/>
      <point x="1421" y="814"/>
      <point x="1421" y="659" type="curve" smooth="yes"/>
      <point x="1421" y="639" type="line" smooth="yes"/>
      <point x="1421" y="594"/>
      <point x="172" y="646"/>
      <point x="172" y="238" type="curve" smooth="yes"/>
      <point x="172" y="62"/>
      <point x="336" y="-41"/>
    </contour>
    <contour>
      <point x="697" y="115" type="curve" smooth="yes"/>
      <point x="489" y="115"/>
      <point x="409" y="169"/>
      <point x="409" y="264" type="curve" smooth="yes"/>
      <point x="409" y="357"/>
      <point x="659" y="437"/>
      <point x="1226" y="499" type="curve"/>
      <point x="1231" y="500"/>
      <point x="1410" y="520"/>
      <point x="1413" y="520" type="curve" smooth="yes"/>
      <point x="1424" y="520"/>
      <point x="1424" y="508"/>
      <point x="1424" y="494" type="curve" smooth="yes"/>
      <point x="1424" y="304"/>
      <point x="1041" y="115"/>
    </contour>
  </outline>
</glyph>
<glyph name="b" format="1">
  <advance width="1759"/>
  <unicode hex="0062"/>
  <outline>
    <contour>
      <point x="931" y="-41" type="curve" smooth="yes"/>
      <point x="1225" y="-41"/>
      <point x="1591" y="107"/>
      <point x="1591" y="504" type="curve" smooth="yes"/>
      <point x="1591" y="912"/>
      <point x="1237" y="1053"/>
      <point x="913" y="1053" type="curve" smooth="yes"/>
      <point x="714" y="1053"/>
      <point x="543" y="989"/>
      <point x="435" y="857" type="curve"/>
      <point x="433" y="857"/>
      <point x="431" y="853"/>
      <point x="429" y="853" type="curve" smooth="yes"/>
      <point x="428" y="853"/>
      <point x="427" y="854"/>
      <point x="427" y="861" type="curve" smooth="yes"/>
      <point x="427" y="1371" type="line" smooth="yes"/>
      <point x="427" y="1414"/>
      <point x="403" y="1438"/>
      <point x="360" y="1438" type="curve" smooth="yes"/>
      <point x="266" y="1438" type="line" smooth="yes"/>
      <point x="223" y="1438"/>
      <point x="199" y="1414"/>
      <point x="199" y="1371" type="curve" smooth="yes"/>
      <point x="199" y="67" type="line" smooth="yes"/>
      <point x="199" y="24"/>
      <point x="209" y="0"/>
      <point x="252" y="0" type="curve" smooth="yes"/>
      <point x="266" y="0" type="line" smooth="yes"/>
      <point x="307" y="0"/>
      <point x="335" y="53"/>
      <point x="363" y="144" type="curve" smooth="yes"/>
      <point x="369" y="164"/>
      <point x="376" y="184"/>
      <point x="381" y="201" type="curve"/>
      <point x="383" y="210"/>
      <point x="386" y="212"/>
      <point x="389" y="212" type="curve" smooth="yes"/>
      <point x="392" y="212"/>
      <point x="394" y="209"/>
      <point x="396" y="207" type="curve"/>
      <point x="513" y="43"/>
      <point x="731" y="-41"/>
    </contour>
    <contour>
      <point x="896" y="119" type="curve" smooth="yes"/>
      <point x="639" y="119"/>
      <point x="427" y="247"/>
      <point x="427" y="504" type="curve" smooth="yes"/>
      <point x="427" y="784"/>
      <point x="655" y="893"/>
      <point x="896" y="893" type="curve" smooth="yes"/>
      <point x="1134" y="893"/>
      <point x="1362" y="788"/>
      <point x="1362" y="504" type="curve" smooth="yes"/>
      <point x="1362" y="243"/>
      <point x="1150" y="119"/>
    </contour>
  </outline>
</glyph>
<glyph name="c" format="1">
  <advance width="1618"/>
  <unicode hex="0063"/>
  <outline>
    <contour>
      <point x="908" y="-41" type="curve" smooth="yes"/>
      <point x="1049" y="-41"/>
      <point x="1235" y="1"/>
      <point x="1361" y="62" type="curve" smooth="yes"/>
      <point x="1405" y="83"/>
      <point x="1410" y="108"/>
      <point x="1402" y="135" type="curve" smooth="yes"/>
      <point x="1394" y="163"/>
      <point x="1384" y="196"/>
      <point x="1381" y="203" type="curve"/>
      <point x="1374" y="223"/>
      <point x="1346" y="232"/>
      <point x="1305" y="213" type="curve" smooth="yes"/>
      <point x="1238" y="182"/>
      <point x="1071" y="119"/>
      <point x="920" y="119" type="curve" smooth="yes"/>
      <point x="641" y="119"/>
      <point x="387" y="246"/>
      <point x="388" y="504" type="curve" smooth="yes"/>
      <point x="387" y="786"/>
      <point x="665" y="893"/>
      <point x="907" y="893" type="curve" smooth="yes"/>
      <point x="1085" y="893"/>
      <point x="1245" y="838"/>
      <point x="1327" y="794" type="curve" smooth="yes"/>
      <point x="1352" y="781"/>
      <point x="1384" y="759"/>
      <point x="1402" y="802" type="curve" smooth="yes"/>
      <point x="1431" y="871" type="line" smooth="yes"/>
      <point x="1440" y="893"/>
      <point x="1436" y="913"/>
      <point x="1405" y="932" type="curve" smooth="yes"/>
      <point x="1268" y="1015"/>
      <point x="1069" y="1053"/>
      <point x="908" y="1053" type="curve" smooth="yes"/>
      <point x="579" y="1053"/>
      <point x="159" y="912"/>
      <point x="159" y="504" type="curve" smooth="yes"/>
      <point x="159" y="106"/>
      <point x="581" y="-41"/>
    </contour>
  </outline>
</glyph>
<glyph name="d" format="1">
  <advance width="1754"/>
  <unicode hex="0064"/>
  <outline>
    <contour>
      <point x="821" y="-41" type="curve" smooth="yes"/>
      <point x="1019" y="-41"/>
      <point x="1236" y="42"/>
      <point x="1353" y="203" type="curve" smooth="yes"/>
      <point x="1357" y="209"/>
      <point x="1361" y="214"/>
      <point x="1365" y="220" type="curve"/>
      <point x="1367" y="214"/>
      <point x="1369" y="208"/>
      <point x="1371" y="202" type="curve" smooth="yes"/>
      <point x="1384" y="162"/>
      <point x="1399" y="112"/>
      <point x="1418" y="71" type="curve" smooth="yes"/>
      <point x="1438" y="31"/>
      <point x="1460" y="0"/>
      <point x="1486" y="0" type="curve" smooth="yes"/>
      <point x="1500" y="0" type="line" smooth="yes"/>
      <point x="1543" y="0"/>
      <point x="1553" y="24"/>
      <point x="1553" y="67" type="curve" smooth="yes"/>
      <point x="1553" y="1371" type="line" smooth="yes"/>
      <point x="1553" y="1414"/>
      <point x="1529" y="1438"/>
      <point x="1486" y="1438" type="curve" smooth="yes"/>
      <point x="1392" y="1438" type="line" smooth="yes"/>
      <point x="1349" y="1438"/>
      <point x="1325" y="1414"/>
      <point x="1325" y="1371" type="curve" smooth="yes"/>
      <point x="1325" y="866" type="line"/>
      <point x="1325" y="847" type="line"/>
      <point x="1322" y="852"/>
      <point x="1318" y="856"/>
      <point x="1314" y="860" type="curve"/>
      <point x="1207" y="990"/>
      <point x="1036" y="1053"/>
      <point x="839" y="1053" type="curve" smooth="yes"/>
      <point x="515" y="1053"/>
      <point x="161" y="912"/>
      <point x="161" y="504" type="curve" smooth="yes"/>
      <point x="161" y="107"/>
      <point x="527" y="-41"/>
    </contour>
    <contour>
      <point x="856" y="119" type="curve" smooth="yes"/>
      <point x="602" y="119"/>
      <point x="390" y="243"/>
      <point x="390" y="504" type="curve" smooth="yes"/>
      <point x="390" y="788"/>
      <point x="618" y="893"/>
      <point x="856" y="893" type="curve" smooth="yes"/>
      <point x="1098" y="893"/>
      <point x="1326" y="786"/>
      <point x="1325" y="504" type="curve"/>
      <point x="1326" y="246"/>
      <point x="1114" y="119"/>
    </contour>
  </outline>
</glyph>
<glyph name="e" format="1">
  <advance width="1726"/>
  <unicode hex="0065"/>
  <outline>
    <contour>
      <point x="899" y="-41" type="curve" smooth="yes"/>
      <point x="1321" y="-41"/>
      <point x="1528" y="110"/>
      <point x="1528" y="244" type="curve" smooth="yes"/>
      <point x="1528" y="292"/>
      <point x="1517" y="303"/>
      <point x="1488" y="303" type="curve" smooth="yes"/>
      <point x="1460" y="303"/>
      <point x="1405" y="304"/>
      <point x="1398" y="303" type="curve"/>
      <point x="1330" y="303"/>
      <point x="1401" y="119"/>
      <point x="911" y="119" type="curve" smooth="yes"/>
      <point x="534" y="119"/>
      <point x="396" y="314"/>
      <point x="395" y="440" type="curve" smooth="yes"/>
      <point x="395" y="448"/>
      <point x="401" y="450"/>
      <point x="412" y="450" type="curve" smooth="yes"/>
      <point x="1422" y="450" type="line" smooth="yes"/>
      <point x="1531" y="450"/>
      <point x="1553" y="521"/>
      <point x="1554" y="556" type="curve" smooth="yes"/>
      <point x="1554" y="607" type="line"/>
      <point x="1506" y="817"/>
      <point x="1308" y="1053"/>
      <point x="879" y="1053" type="curve" smooth="yes"/>
      <point x="551" y="1053"/>
      <point x="160" y="912"/>
      <point x="160" y="504" type="curve" smooth="yes"/>
      <point x="160" y="106"/>
      <point x="541" y="-41"/>
    </contour>
    <contour>
      <point x="407" y="595" type="line" smooth="yes"/>
      <point x="400" y="595"/>
      <point x="399" y="598"/>
      <point x="399" y="602" type="curve"/>
      <point x="434" y="816"/>
      <point x="666" y="893"/>
      <point x="878" y="893" type="curve" smooth="yes"/>
      <point x="1200" y="893"/>
      <point x="1312" y="738"/>
      <point x="1361" y="597" type="curve"/>
      <point x="1362" y="595" type="line"/>
    </contour>
  </outline>
</glyph>
<glyph name="f" format="1">
  <advance width="1298"/>
  <unicode hex="0066"/>
  <outline>
    <contour>
      <point x="469" y="0" type="curve" smooth="yes"/>
      <point x="543" y="0" type="line" smooth="yes"/>
      <point x="586" y="0"/>
      <point x="620" y="34"/>
      <point x="620" y="77" type="curve" smooth="yes"/>
      <point x="620" y="821" type="line" smooth="yes"/>
      <point x="620" y="841"/>
      <point x="623" y="858"/>
      <point x="643" y="858" type="curve" smooth="yes"/>
      <point x="1037" y="858" type="line" smooth="yes"/>
      <point x="1080" y="858"/>
      <point x="1104" y="867"/>
      <point x="1104" y="910" type="curve" smooth="yes"/>
      <point x="1104" y="951" type="line" smooth="yes"/>
      <point x="1104" y="994"/>
      <point x="1080" y="1006"/>
      <point x="1037" y="1006" type="curve" smooth="yes"/>
      <point x="626" y="1006" type="line" smooth="yes"/>
      <point x="623" y="1006"/>
      <point x="620" y="1009"/>
      <point x="620" y="1012" type="curve" smooth="yes"/>
      <point x="620" y="1090" type="line" smooth="yes"/>
      <point x="620" y="1229"/>
      <point x="659" y="1295"/>
      <point x="880" y="1295" type="curve" smooth="yes"/>
      <point x="946" y="1295"/>
      <point x="1082" y="1275"/>
      <point x="1087" y="1275" type="curve" smooth="yes"/>
      <point x="1121" y="1275"/>
      <point x="1128" y="1289"/>
      <point x="1128" y="1326" type="curve" smooth="yes"/>
      <point x="1128" y="1375" type="line" smooth="yes"/>
      <point x="1128" y="1403"/>
      <point x="1106" y="1431"/>
      <point x="1078" y="1438" type="curve"/>
      <point x="1060" y="1441"/>
      <point x="938" y="1475"/>
      <point x="824" y="1475" type="curve" smooth="yes"/>
      <point x="609" y="1475"/>
      <point x="393" y="1381"/>
      <point x="393" y="1041" type="curve" smooth="yes"/>
      <point x="393" y="1019"/>
      <point x="392" y="1006"/>
      <point x="370" y="1006" type="curve" smooth="yes"/>
      <point x="220" y="1006" type="line" smooth="yes"/>
      <point x="177" y="1006"/>
      <point x="153" y="988"/>
      <point x="153" y="945" type="curve" smooth="yes"/>
      <point x="153" y="910" type="line" smooth="yes"/>
      <point x="153" y="867"/>
      <point x="177" y="858"/>
      <point x="220" y="858" type="curve" smooth="yes"/>
      <point x="372" y="858" type="line" smooth="yes"/>
      <point x="392" y="858"/>
      <point x="392" y="841"/>
      <point x="392" y="821" type="curve" smooth="yes"/>
      <point x="392" y="77" type="line" smooth="yes"/>
      <point x="392" y="34"/>
      <point x="426" y="0"/>
    </contour>
  </outline>
</glyph>
<glyph name="g" format="1">
  <advance width="1882"/>
  <unicode hex="0067"/>
  <outline>
    <contour>
      <point x="819.0" y="-511.0" type="curve" smooth="yes"/>
      <point x="1297.0" y="-511.0"/>
      <point x="1512.0" y="-405.0"/>
      <point x="1512.0" y="-173.0" type="curve" smooth="yes"/>
      <point x="1512.0" y="22.0"/>
      <point x="1353" y="170"/>
      <point x="938" y="170" type="curve" smooth="yes"/>
      <point x="559.0" y="170.0" type="line" smooth="yes"/>
      <point x="401" y="170"/>
      <point x="398" y="206"/>
      <point x="398" y="245" type="curve" smooth="yes"/>
      <point x="398" y="275"/>
      <point x="430.0" y="315.0"/>
      <point x="466.0" y="343.0" type="curve" smooth="yes"/>
      <point x="491.0" y="362.0"/>
      <point x="529.0" y="384.0"/>
      <point x="545.0" y="381.0" type="curve" smooth="yes"/>
      <point x="621.0" y="364.0"/>
      <point x="723.0" y="354.0"/>
      <point x="838.0" y="354.0" type="curve" smooth="yes"/>
      <point x="1300.0" y="354.0"/>
      <point x="1403.0" y="512.0"/>
      <point x="1403.0" y="705.0" type="curve" smooth="yes"/>
      <point x="1403.0" y="823.0"/>
      <point x="1298.0" y="947.0"/>
      <point x="1113.0" y="999.0" type="curve" smooth="yes"/>
      <point x="1097.0" y="1004.0"/>
      <point x="1090.0" y="1025.0"/>
      <point x="1100.0" y="1040.0" type="curve" smooth="yes"/>
      <point x="1274.0" y="1283.0" type="line" smooth="yes"/>
      <point x="1290.0" y="1308.0"/>
      <point x="1272.0" y="1342.0"/>
      <point x="1241.0" y="1342.0" type="curve" smooth="yes"/>
      <point x="1146.0" y="1342.0" type="line" smooth="yes"/>
      <point x="1106.0" y="1342.0"/>
      <point x="1071.0" y="1313.0"/>
      <point x="1064.0" y="1274.0" type="curve" smooth="yes"/>
      <point x="994.0" y="1067.0" type="line" smooth="yes"/>
      <point x="990.0" y="1050.0"/>
      <point x="972.0" y="1037.0"/>
      <point x="954.0" y="1039.0" type="curve" smooth="yes"/>
      <point x="911.0" y="1044.0"/>
      <point x="855.0" y="1052.0"/>
      <point x="801.0" y="1052.0" type="curve" smooth="yes"/>
      <point x="326.0" y="1052.0"/>
      <point x="183.0" y="889.0"/>
      <point x="183.0" y="705.0" type="curve" smooth="yes"/>
      <point x="183.0" y="614.0"/>
      <point x="229" y="525"/>
      <point x="372" y="449" type="curve" smooth="yes"/>
      <point x="378" y="446"/>
      <point x="388" y="446"/>
      <point x="388" y="439" type="curve" smooth="yes"/>
      <point x="388" y="431"/>
      <point x="377" y="426"/>
      <point x="369" y="421" type="curve" smooth="yes"/>
      <point x="291" y="372"/>
      <point x="208" y="277"/>
      <point x="208" y="182" type="curve" smooth="yes"/>
      <point x="208" y="94"/>
      <point x="278" y="64"/>
      <point x="411" y="34" type="curve" smooth="yes"/>
      <point x="418" y="32"/>
      <point x="430" y="28"/>
      <point x="430" y="22" type="curve" smooth="yes"/>
      <point x="430" y="17"/>
      <point x="419" y="8"/>
      <point x="413" y="5" type="curve" smooth="yes"/>
      <point x="295" y="-68"/>
      <point x="202.0" y="-135.0"/>
      <point x="202.0" y="-279.0" type="curve" smooth="yes"/>
      <point x="202.0" y="-416.0"/>
      <point x="378.0" y="-511.0"/>
    </contour>
    <contour>
      <point x="831.0" y="-325.0" type="curve" smooth="yes"/>
      <point x="462.0" y="-325.0"/>
      <point x="409.0" y="-241.0"/>
      <point x="409.0" y="-200.0" type="curve" smooth="yes"/>
      <point x="409.0" y="-94.0"/>
      <point x="553" y="0"/>
      <point x="645" y="0" type="curve" smooth="yes"/>
      <point x="949.0" y="0.0" type="line" smooth="yes"/>
      <point x="1171" y="0"/>
      <point x="1280.0" y="-31.0"/>
      <point x="1280.0" y="-134.0" type="curve" smooth="yes"/>
      <point x="1280.0" y="-267.0"/>
      <point x="1205.0" y="-325.0"/>
    </contour>
    <contour>
      <point x="801.0" y="511.0" type="curve" smooth="yes"/>
      <point x="453.0" y="511.0"/>
      <point x="400.0" y="613.0"/>
      <point x="400.0" y="709.0" type="curve" smooth="yes"/>
      <point x="400.0" y="792.0"/>
      <point x="448.0" y="894.0"/>
      <point x="795.0" y="894.0" type="curve" smooth="yes"/>
      <point x="1156.0" y="894.0"/>
      <point x="1194.0" y="797.0"/>
      <point x="1194.0" y="698.0" type="curve" smooth="yes"/>
      <point x="1194.0" y="608.0"/>
      <point x="1171.0" y="511.0"/>
    </contour>
  </outline>
</glyph>
<glyph name="h" format="1">
  <advance width="1628"/>
  <unicode hex="0068"/>
  <outline>
    <contour>
      <point x="266" y="0" type="curve" smooth="yes"/>
      <point x="361" y="0" type="line" smooth="yes"/>
      <point x="404" y="0"/>
      <point x="427" y="24"/>
      <point x="427" y="67" type="curve" smooth="yes"/>
      <point x="427" y="606" type="line" smooth="yes"/>
      <point x="427" y="739"/>
      <point x="684" y="902"/>
      <point x="881" y="902" type="curve" smooth="yes"/>
      <point x="1067" y="902"/>
      <point x="1216" y="831"/>
      <point x="1216" y="606" type="curve" smooth="yes"/>
      <point x="1216" y="67" type="line" smooth="yes"/>
      <point x="1216" y="24"/>
      <point x="1240" y="0"/>
      <point x="1283" y="0" type="curve" smooth="yes"/>
      <point x="1377" y="0" type="line" smooth="yes"/>
      <point x="1420" y="0"/>
      <point x="1444" y="24"/>
      <point x="1444" y="67" type="curve" smooth="yes"/>
      <point x="1444" y="552" type="line" smooth="yes"/>
      <point x="1444" y="888"/>
      <point x="1236" y="1053"/>
      <point x="924" y="1053" type="curve" smooth="yes"/>
      <point x="743" y="1053"/>
      <point x="566" y="993"/>
      <point x="437" y="848" type="curve"/>
      <point x="427" y="854" type="line"/>
      <point x="427" y="1371" type="line" smooth="yes"/>
      <point x="427" y="1414"/>
      <point x="403" y="1438"/>
      <point x="360" y="1438" type="curve" smooth="yes"/>
      <point x="266" y="1438" type="line" smooth="yes"/>
      <point x="223" y="1438"/>
      <point x="199" y="1414"/>
      <point x="199" y="1371" type="curve" smooth="yes"/>
      <point x="199" y="67" type="line" smooth="yes"/>
      <point x="199" y="24"/>
      <point x="223" y="0"/>
    </contour>
  </outline>
</glyph>
<glyph name="i" format="1">
  <advance width="654"/>
  <unicode hex="0069"/>
  <outline>
    <contour>
      <point x="281" y="0" type="curve" smooth="yes"/>
      <point x="375" y="0" type="line" smooth="yes"/>
      <point x="418" y="0"/>
      <point x="442" y="24"/>
      <point x="442" y="67" type="curve" smooth="yes"/>
      <point x="442" y="939" type="line" smooth="yes"/>
      <point x="442" y="982"/>
      <point x="418" y="1006"/>
      <point x="375" y="1006" type="curve" smooth="yes"/>
      <point x="281" y="1006" type="line" smooth="yes"/>
      <point x="238" y="1006"/>
      <point x="214" y="982"/>
      <point x="214" y="939" type="curve" smooth="yes"/>
      <point x="214" y="67" type="line" smooth="yes"/>
      <point x="214" y="24"/>
      <point x="238" y="0"/>
    </contour>
    <contour>
      <point x="328" y="1179" type="curve" smooth="yes"/>
      <point x="418" y="1179"/>
      <point x="459" y="1240"/>
      <point x="459" y="1291" type="curve" smooth="yes"/>
      <point x="459" y="1339"/>
      <point x="427" y="1410"/>
      <point x="328" y="1410" type="curve" smooth="yes"/>
      <point x="214" y="1410"/>
      <point x="190" y="1338"/>
      <point x="190" y="1291" type="curve" smooth="yes"/>
      <point x="190" y="1244"/>
      <point x="230" y="1179"/>
    </contour>
  </outline>
</glyph>
<glyph name="k" format="1">
  <advance width="1792"/>
  <unicode hex="006B"/>
  <outline>
    <contour>
      <point x="266" y="0" type="curve" smooth="yes"/>
      <point x="360" y="0" type="line" smooth="yes"/>
      <point x="403" y="0"/>
      <point x="427" y="24"/>
      <point x="427" y="67" type="curve" smooth="yes"/>
      <point x="427" y="122"/>
      <point x="427" y="280"/>
      <point x="427" y="288" type="curve" smooth="yes"/>
      <point x="427" y="299"/>
      <point x="432" y="305"/>
      <point x="440" y="310" type="curve" smooth="yes"/>
      <point x="443" y="312"/>
      <point x="647" y="429"/>
      <point x="716" y="468" type="curve"/>
      <point x="722" y="472"/>
      <point x="727" y="473"/>
      <point x="730" y="473" type="curve" smooth="yes"/>
      <point x="738" y="473"/>
      <point x="742" y="468"/>
      <point x="746" y="465" type="curve" smooth="yes"/>
      <point x="1288" y="67" type="line" smooth="yes"/>
      <point x="1336" y="31"/>
      <point x="1377" y="0"/>
      <point x="1420" y="0" type="curve" smooth="yes"/>
      <point x="1584" y="0" type="line" smooth="yes"/>
      <point x="1607" y="0"/>
      <point x="1620" y="9"/>
      <point x="1620" y="22" type="curve" smooth="yes"/>
      <point x="1620" y="34"/>
      <point x="1609" y="50"/>
      <point x="1586" y="67" type="curve" smooth="yes"/>
      <point x="918" y="548" type="line"/>
      <point x="916" y="549"/>
      <point x="911" y="552"/>
      <point x="911" y="556" type="curve" smooth="yes"/>
      <point x="911" y="559"/>
      <point x="912" y="561"/>
      <point x="917" y="564" type="curve" smooth="yes"/>
      <point x="1522" y="938" type="line" smooth="yes"/>
      <point x="1554" y="957"/>
      <point x="1568" y="975"/>
      <point x="1568" y="988" type="curve" smooth="yes"/>
      <point x="1568" y="998"/>
      <point x="1558" y="1005"/>
      <point x="1538" y="1005" type="curve" smooth="yes"/>
      <point x="1344" y="1005" type="line" smooth="yes"/>
      <point x="1301" y="1005"/>
      <point x="1252" y="974"/>
      <point x="1194" y="938" type="curve" smooth="yes"/>
      <point x="440" y="474" type="line"/>
      <point x="438" y="472"/>
      <point x="435" y="472"/>
      <point x="434" y="472" type="curve" smooth="yes"/>
      <point x="429" y="472"/>
      <point x="427" y="475"/>
      <point x="427" y="481" type="curve" smooth="yes"/>
      <point x="427" y="1371" type="line" smooth="yes"/>
      <point x="427" y="1414"/>
      <point x="403" y="1438"/>
      <point x="360" y="1438" type="curve" smooth="yes"/>
      <point x="266" y="1438" type="line" smooth="yes"/>
      <point x="223" y="1438"/>
      <point x="199" y="1414"/>
      <point x="199" y="1371" type="curve" smooth="yes"/>
      <point x="199" y="67" type="line" smooth="yes"/>
      <point x="199" y="24"/>
      <point x="223" y="0"/>
    </contour>
  </outline>
</glyph>
<glyph name="l" format="1">
  <advance width="628"/>
  <unicode hex="006C"/>
  <outline>
    <contour>
      <point x="266" y="0" type="curve" smooth="yes"/>
      <point x="360" y="0" type="line" smooth="yes"/>
      <point x="403" y="0"/>
      <point x="427" y="24"/>
      <point x="427" y="67" type="curve" smooth="yes"/>
      <point x="427" y="1371" type="line" smooth="yes"/>
      <point x="427" y="1414"/>
      <point x="403" y="1438"/>
      <point x="360" y="1438" type="curve" smooth="yes"/>
      <point x="266" y="1438" type="line" smooth="yes"/>
      <point x="223" y="1438"/>
      <point x="199" y="1414"/>
      <point x="199" y="1371" type="curve" smooth="yes"/>
      <point x="199" y="67" type="line" smooth="yes"/>
      <point x="199" y="24"/>
      <point x="223" y="0"/>
    </contour>
  </outline>
</glyph>
<glyph name="m" format="1">
  <advance width="2634"/>
  <unicode hex="006D"/>
  <outline>
    <contour>
      <point x="415" y="67" type="curve" smooth="yes"/>
      <point x="415" y="606" type="line" smooth="yes"/>
      <point x="415" y="739"/>
      <point x="672" y="902"/>
      <point x="869" y="902" type="curve" smooth="yes"/>
      <point x="1055" y="902"/>
      <point x="1204" y="831"/>
      <point x="1204" y="606" type="curve" smooth="yes"/>
      <point x="1204" y="67" type="line" smooth="yes"/>
      <point x="1204" y="24"/>
      <point x="1228" y="0"/>
      <point x="1271" y="0" type="curve" smooth="yes"/>
      <point x="1365" y="0" type="line" smooth="yes"/>
      <point x="1408" y="0"/>
      <point x="1432" y="24"/>
      <point x="1432" y="67" type="curve" smooth="yes"/>
      <point x="1432" y="598" type="line"/>
      <point x="1433" y="599"/>
      <point x="1434" y="602"/>
      <point x="1434" y="606" type="curve" smooth="yes"/>
      <point x="1434" y="739"/>
      <point x="1690" y="902"/>
      <point x="1887" y="902" type="curve" smooth="yes"/>
      <point x="2073" y="902"/>
      <point x="2222" y="831"/>
      <point x="2222" y="606" type="curve" smooth="yes"/>
      <point x="2222" y="67" type="line" smooth="yes"/>
      <point x="2222" y="24"/>
      <point x="2246" y="0"/>
      <point x="2289" y="0" type="curve" smooth="yes"/>
      <point x="2383" y="0" type="line" smooth="yes"/>
      <point x="2426" y="0"/>
      <point x="2450" y="24"/>
      <point x="2450" y="67" type="curve" smooth="yes"/>
      <point x="2450" y="552" type="line" smooth="yes"/>
      <point x="2450" y="888"/>
      <point x="2242" y="1053"/>
      <point x="1930" y="1053" type="curve" smooth="yes"/>
      <point x="1740" y="1053"/>
      <point x="1549" y="990"/>
      <point x="1424" y="826" type="curve" smooth="yes"/>
      <point x="1410" y="808"/>
      <point x="1399" y="801"/>
      <point x="1391" y="801" type="curve" smooth="yes"/>
      <point x="1379" y="801"/>
      <point x="1372" y="812"/>
      <point x="1365" y="822" type="curve" smooth="yes"/>
      <point x="1265" y="972"/>
      <point x="1126" y="1053"/>
      <point x="912" y="1053" type="curve" smooth="yes"/>
      <point x="722" y="1053"/>
      <point x="536" y="987"/>
      <point x="406" y="826" type="curve" smooth="yes"/>
      <point x="400" y="819"/>
      <point x="394" y="811"/>
      <point x="386" y="811" type="curve" smooth="yes"/>
      <point x="378" y="811"/>
      <point x="376" y="816"/>
      <point x="371" y="824" type="curve"/>
      <point x="344" y="942" type="line" smooth="yes"/>
      <point x="333" y="992"/>
      <point x="311" y="1006"/>
      <point x="264" y="1006" type="curve" smooth="yes"/>
      <point x="244" y="1006" type="line" smooth="yes"/>
      <point x="201" y="1006"/>
      <point x="187" y="972"/>
      <point x="187" y="929" type="curve" smooth="yes"/>
      <point x="187" y="67" type="line" smooth="yes"/>
      <point x="187" y="24"/>
      <point x="211" y="0"/>
      <point x="254" y="0" type="curve" smooth="yes"/>
      <point x="349" y="0" type="line" smooth="yes"/>
      <point x="392" y="0"/>
      <point x="415" y="24"/>
    </contour>
  </outline>
</glyph>
<glyph name="n" format="1">
  <advance width="1616"/>
  <unicode hex="006E"/>
  <outline>
    <contour>
      <point x="254" y="0" type="curve" smooth="yes"/>
      <point x="349" y="0" type="line" smooth="yes"/>
      <point x="392" y="0"/>
      <point x="415" y="24"/>
      <point x="415" y="67" type="curve" smooth="yes"/>
      <point x="415" y="606" type="line" smooth="yes"/>
      <point x="415" y="739"/>
      <point x="672" y="902"/>
      <point x="869" y="902" type="curve" smooth="yes"/>
      <point x="1055" y="902"/>
      <point x="1204" y="831"/>
      <point x="1204" y="606" type="curve" smooth="yes"/>
      <point x="1204" y="67" type="line" smooth="yes"/>
      <point x="1204" y="24"/>
      <point x="1228" y="0"/>
      <point x="1271" y="0" type="curve" smooth="yes"/>
      <point x="1365" y="0" type="line" smooth="yes"/>
      <point x="1408" y="0"/>
      <point x="1432" y="24"/>
      <point x="1432" y="67" type="curve" smooth="yes"/>
      <point x="1432" y="552" type="line" smooth="yes"/>
      <point x="1432" y="888"/>
      <point x="1224" y="1053"/>
      <point x="912" y="1053" type="curve" smooth="yes"/>
      <point x="722" y="1053"/>
      <point x="536" y="987"/>
      <point x="406" y="826" type="curve" smooth="yes"/>
      <point x="400" y="819"/>
      <point x="394" y="811"/>
      <point x="386" y="811" type="curve" smooth="yes"/>
      <point x="378" y="811"/>
      <point x="376" y="816"/>
      <point x="371" y="824" type="curve"/>
      <point x="344" y="942" type="line" smooth="yes"/>
      <point x="333" y="992"/>
      <point x="311" y="1006"/>
      <point x="264" y="1006" type="curve" smooth="yes"/>
      <point x="244" y="1006" type="line" smooth="yes"/>
      <point x="201" y="1006"/>
      <point x="187" y="972"/>
      <point x="187" y="929" type="curve" smooth="yes"/>
      <point x="187" y="67" type="line" smooth="yes"/>
      <point x="187" y="24"/>
      <point x="211" y="0"/>
    </contour>
  </outline>
</glyph>
<glyph name="o" format="1">
  <advance width="1721"/>
  <unicode hex="006F"/>
  <outline>
    <contour>
      <point x="862" y="119" type="curve" smooth="yes"/>
      <point x="604" y="119"/>
      <point x="392" y="246"/>
      <point x="393" y="504" type="curve" smooth="yes"/>
      <point x="392" y="786"/>
      <point x="620" y="893"/>
      <point x="862" y="893" type="curve" smooth="yes"/>
      <point x="1100" y="893"/>
      <point x="1328" y="788"/>
      <point x="1328" y="504" type="curve" smooth="yes"/>
      <point x="1328" y="243"/>
      <point x="1116" y="119"/>
    </contour>
    <contour>
      <point x="863" y="-41" type="curve" smooth="yes"/>
      <point x="1157" y="-41"/>
      <point x="1557" y="107"/>
      <point x="1557" y="504" type="curve" smooth="yes"/>
      <point x="1557" y="912"/>
      <point x="1187" y="1053"/>
      <point x="863" y="1053" type="curve" smooth="yes"/>
      <point x="534" y="1053"/>
      <point x="164" y="912"/>
      <point x="164" y="504" type="curve" smooth="yes"/>
      <point x="164" y="106"/>
      <point x="564" y="-41"/>
    </contour>
  </outline>
</glyph>
<glyph name="q" format="1">
  <advance width="1748"/>
  <unicode hex="0071"/>
  <outline>
    <contour>
      <point x="1392" y="-427" type="curve" smooth="yes"/>
      <point x="1486" y="-427" type="line" smooth="yes"/>
      <point x="1529" y="-427"/>
      <point x="1553" y="-403"/>
      <point x="1553" y="-360" type="curve" smooth="yes"/>
      <point x="1553" y="944" type="line" smooth="yes"/>
      <point x="1553" y="987"/>
      <point x="1543" y="1011"/>
      <point x="1500" y="1011" type="curve" smooth="yes"/>
      <point x="1486" y="1011" type="line" smooth="yes"/>
      <point x="1457" y="1011"/>
      <point x="1433" y="992"/>
      <point x="1413" y="927" type="curve" smooth="yes"/>
      <point x="1401" y="888"/>
      <point x="1383" y="843"/>
      <point x="1370" y="808" type="curve" smooth="yes"/>
      <point x="1368" y="802"/>
      <point x="1365" y="800"/>
      <point x="1363" y="800" type="curve" smooth="yes"/>
      <point x="1360" y="800"/>
      <point x="1358" y="802"/>
      <point x="1356" y="805" type="curve" smooth="yes"/>
      <point x="1239" y="968"/>
      <point x="1021" y="1052"/>
      <point x="821" y="1052" type="curve" smooth="yes"/>
      <point x="527" y="1052"/>
      <point x="161" y="904"/>
      <point x="161" y="507" type="curve" smooth="yes"/>
      <point x="161" y="99"/>
      <point x="515" y="-42"/>
      <point x="839" y="-42" type="curve" smooth="yes"/>
      <point x="1035" y="-42"/>
      <point x="1203" y="22"/>
      <point x="1313" y="148" type="curve"/>
      <point x="1314" y="149"/>
      <point x="1318" y="154"/>
      <point x="1321" y="154" type="curve" smooth="yes"/>
      <point x="1323" y="154"/>
      <point x="1325" y="152"/>
      <point x="1325" y="145" type="curve" smooth="yes"/>
      <point x="1325" y="-360" type="line" smooth="yes"/>
      <point x="1325" y="-403"/>
      <point x="1349" y="-427"/>
    </contour>
    <contour>
      <point x="856" y="118" type="curve" smooth="yes"/>
      <point x="618" y="118"/>
      <point x="390" y="223"/>
      <point x="390" y="507" type="curve" smooth="yes"/>
      <point x="390" y="768"/>
      <point x="602" y="892"/>
      <point x="856" y="892" type="curve" smooth="yes"/>
      <point x="1114" y="892"/>
      <point x="1326" y="765"/>
      <point x="1325" y="507" type="curve"/>
      <point x="1326" y="225"/>
      <point x="1098" y="118"/>
    </contour>
  </outline>
</glyph>
<glyph name="r" format="1">
  <advance width="1471"/>
  <unicode hex="0072"/>
  <outline>
    <contour>
      <point x="254" y="0" type="curve" smooth="yes"/>
      <point x="349" y="0" type="line" smooth="yes"/>
      <point x="392" y="0"/>
      <point x="415" y="24"/>
      <point x="415" y="67" type="curve" smooth="yes"/>
      <point x="415" y="606" type="line" smooth="yes"/>
      <point x="415" y="739"/>
      <point x="594" y="902"/>
      <point x="791" y="902" type="curve" smooth="yes"/>
      <point x="977" y="902"/>
      <point x="1084" y="864"/>
      <point x="1084" y="696" type="curve" smooth="yes"/>
      <point x="1084" y="628" type="line" smooth="yes"/>
      <point x="1084" y="585"/>
      <point x="1108" y="561"/>
      <point x="1151" y="561" type="curve" smooth="yes"/>
      <point x="1245" y="561" type="line" smooth="yes"/>
      <point x="1288" y="561"/>
      <point x="1312" y="585"/>
      <point x="1312" y="628" type="curve" smooth="yes"/>
      <point x="1312" y="642" type="line" smooth="yes"/>
      <point x="1312" y="950"/>
      <point x="1129" y="1053"/>
      <point x="863" y="1053" type="curve" smooth="yes"/>
      <point x="673" y="1053"/>
      <point x="480" y="936"/>
      <point x="406" y="833" type="curve" smooth="yes"/>
      <point x="401" y="826"/>
      <point x="394" y="811"/>
      <point x="386" y="811" type="curve" smooth="yes"/>
      <point x="378" y="811"/>
      <point x="373" y="823"/>
      <point x="371" y="832" type="curve" smooth="yes"/>
      <point x="344" y="942" type="line" smooth="yes"/>
      <point x="332" y="992"/>
      <point x="311" y="1006"/>
      <point x="264" y="1006" type="curve" smooth="yes"/>
      <point x="244" y="1006" type="line" smooth="yes"/>
      <point x="201" y="1006"/>
      <point x="187" y="972"/>
      <point x="187" y="929" type="curve" smooth="yes"/>
      <point x="187" y="67" type="line" smooth="yes"/>
      <point x="187" y="24"/>
      <point x="211" y="0"/>
    </contour>
  </outline>
</glyph>
<glyph name="s" format="1">
  <advance width="1835"/>
  <unicode hex="0073"/>
  <outline>
    <contour>
      <point x="890" y="-41" type="curve" smooth="yes"/>
      <point x="1001" y="-41"/>
      <point x="1096" y="-37"/>
      <point x="1181" y="-27" type="curve" smooth="yes"/>
      <point x="1519" y="10"/>
      <point x="1665" y="123"/>
      <point x="1665" y="307" type="curve" smooth="yes"/>
      <point x="1665" y="604"/>
      <point x="1293" y="607"/>
      <point x="913" y="626" type="curve" smooth="yes"/>
      <point x="484" y="647"/>
      <point x="401" y="663"/>
      <point x="401" y="759" type="curve" smooth="yes"/>
      <point x="401" y="863"/>
      <point x="613" y="894"/>
      <point x="931" y="894" type="curve" smooth="yes"/>
      <point x="1159" y="894"/>
      <point x="1352" y="861"/>
      <point x="1446" y="823" type="curve" smooth="yes"/>
      <point x="1485" y="807"/>
      <point x="1528" y="818"/>
      <point x="1546" y="857" type="curve"/>
      <point x="1550" y="866" type="line"/>
      <point x="1567" y="901"/>
      <point x="1551" y="951"/>
      <point x="1517" y="963" type="curve" smooth="yes"/>
      <point x="1313" y="1038"/>
      <point x="1099" y="1053"/>
      <point x="874" y="1053" type="curve" smooth="yes"/>
      <point x="642" y="1053"/>
      <point x="177" y="1032"/>
      <point x="177" y="732" type="curve" smooth="yes"/>
      <point x="177" y="503"/>
      <point x="504" y="456"/>
      <point x="871" y="445" type="curve" smooth="yes"/>
      <point x="1409" y="429"/>
      <point x="1466" y="395"/>
      <point x="1466" y="299" type="curve" smooth="yes"/>
      <point x="1466" y="185"/>
      <point x="1282" y="119"/>
      <point x="937" y="119" type="curve" smooth="yes"/>
      <point x="707" y="119"/>
      <point x="465" y="147"/>
      <point x="290" y="214" type="curve" smooth="yes"/>
      <point x="250" y="229"/>
      <point x="214" y="212"/>
      <point x="195" y="171" type="curve"/>
      <point x="187" y="155" type="line"/>
      <point x="172" y="121"/>
      <point x="190" y="72"/>
      <point x="223" y="59" type="curve" smooth="yes"/>
      <point x="410" y="-18"/>
      <point x="700" y="-41"/>
    </contour>
  </outline>
</glyph>
<glyph name="t" format="1">
  <advance width="1359"/>
  <unicode hex="0074"/>
  <outline>
    <contour>
      <point x="817" y="-41" type="curve" smooth="yes"/>
      <point x="982" y="-41"/>
      <point x="1051" y="-26"/>
      <point x="1130" y="5" type="curve" smooth="yes"/>
      <point x="1171" y="21"/>
      <point x="1186" y="48"/>
      <point x="1186" y="90" type="curve" smooth="yes"/>
      <point x="1186" y="103" type="line" smooth="yes"/>
      <point x="1186" y="138"/>
      <point x="1159" y="193"/>
      <point x="1102" y="174" type="curve" smooth="yes"/>
      <point x="1041" y="154"/>
      <point x="956" y="131"/>
      <point x="852" y="131" type="curve" smooth="yes"/>
      <point x="701" y="131"/>
      <point x="616" y="187"/>
      <point x="616" y="325" type="curve" smooth="yes"/>
      <point x="616" y="821" type="line" smooth="yes"/>
      <point x="616" y="841"/>
      <point x="623" y="848"/>
      <point x="643" y="848" type="curve" smooth="yes"/>
      <point x="1033" y="848" type="line" smooth="yes"/>
      <point x="1076" y="848"/>
      <point x="1100" y="872"/>
      <point x="1100" y="915" type="curve" smooth="yes"/>
      <point x="1100" y="939" type="line" smooth="yes"/>
      <point x="1100" y="982"/>
      <point x="1076" y="1006"/>
      <point x="1033" y="1006" type="curve" smooth="yes"/>
      <point x="643" y="1006" type="line" smooth="yes"/>
      <point x="623" y="1006"/>
      <point x="616" y="1013"/>
      <point x="616" y="1033" type="curve" smooth="yes"/>
      <point x="616" y="1408" type="line" smooth="yes"/>
      <point x="616" y="1451"/>
      <point x="592" y="1475"/>
      <point x="549" y="1475" type="curve" smooth="yes"/>
      <point x="525" y="1475" type="line" smooth="yes"/>
      <point x="482" y="1475"/>
      <point x="466" y="1450"/>
      <point x="458" y="1408" type="curve" smooth="yes"/>
      <point x="388" y="1033" type="line"/>
      <point x="388" y="1013"/>
      <point x="381" y="1006"/>
      <point x="361" y="1006" type="curve" smooth="yes"/>
      <point x="216" y="1006" type="line" smooth="yes"/>
      <point x="173" y="1006"/>
      <point x="149" y="982"/>
      <point x="149" y="939" type="curve" smooth="yes"/>
      <point x="149" y="915" type="line" smooth="yes"/>
      <point x="149" y="872"/>
      <point x="173" y="848"/>
      <point x="216" y="848" type="curve" smooth="yes"/>
      <point x="361" y="848" type="line" smooth="yes"/>
      <point x="381" y="848"/>
      <point x="388" y="841"/>
      <point x="388" y="821" type="curve" smooth="yes"/>
      <point x="388" y="370" type="line" smooth="yes"/>
      <point x="388" y="143"/>
      <point x="533" y="-41"/>
    </contour>
  </outline>
</glyph>
<glyph name="u" format="1">
  <advance width="1616"/>
  <unicode hex="0075"/>
  <outline>
    <contour>
      <point x="699" y="-47" type="curve" smooth="yes"/>
      <point x="889" y="-47"/>
      <point x="1075" y="19"/>
      <point x="1205" y="180" type="curve" smooth="yes"/>
      <point x="1211" y="187"/>
      <point x="1217" y="195"/>
      <point x="1225" y="195" type="curve" smooth="yes"/>
      <point x="1233" y="195"/>
      <point x="1235" y="190"/>
      <point x="1240" y="182" type="curve"/>
      <point x="1267" y="64" type="line" smooth="yes"/>
      <point x="1278" y="14"/>
      <point x="1300" y="0"/>
      <point x="1347" y="0" type="curve" smooth="yes"/>
      <point x="1367" y="0" type="line" smooth="yes"/>
      <point x="1410" y="0"/>
      <point x="1424" y="34"/>
      <point x="1424" y="77" type="curve" smooth="yes"/>
      <point x="1424" y="939" type="line" smooth="yes"/>
      <point x="1424" y="982"/>
      <point x="1400" y="1006"/>
      <point x="1357" y="1006" type="curve" smooth="yes"/>
      <point x="1262" y="1006" type="line" smooth="yes"/>
      <point x="1219" y="1006"/>
      <point x="1196" y="982"/>
      <point x="1196" y="939" type="curve" smooth="yes"/>
      <point x="1196" y="400" type="line" smooth="yes"/>
      <point x="1196" y="267"/>
      <point x="939" y="104"/>
      <point x="742" y="104" type="curve" smooth="yes"/>
      <point x="556" y="104"/>
      <point x="407" y="175"/>
      <point x="407" y="400" type="curve" smooth="yes"/>
      <point x="407" y="939" type="line" smooth="yes"/>
      <point x="407" y="982"/>
      <point x="383" y="1006"/>
      <point x="340" y="1006" type="curve" smooth="yes"/>
      <point x="246" y="1006" type="line" smooth="yes"/>
      <point x="203" y="1006"/>
      <point x="179" y="982"/>
      <point x="179" y="939" type="curve" smooth="yes"/>
      <point x="179" y="454" type="line" smooth="yes"/>
      <point x="179" y="118"/>
      <point x="387" y="-47"/>
    </contour>
  </outline>
</glyph>
<glyph name="v" format="1">
  <advance width="1634"/>
  <unicode hex="0076"/>
  <outline>
    <contour>
      <point x="772" y="1" type="curve" smooth="yes"/>
      <point x="882" y="1" type="line" smooth="yes"/>
      <point x="922" y="1"/>
      <point x="960" y="27"/>
      <point x="988" y="67" type="curve"/>
      <point x="1469" y="939" type="line"/>
      <point x="1481" y="957"/>
      <point x="1487" y="971"/>
      <point x="1487" y="982" type="curve" smooth="yes"/>
      <point x="1487" y="998"/>
      <point x="1474" y="1006"/>
      <point x="1449" y="1006" type="curve" smooth="yes"/>
      <point x="1325" y="1006" type="line" smooth="yes"/>
      <point x="1282" y="1006"/>
      <point x="1254" y="985"/>
      <point x="1231" y="939" type="curve" smooth="yes"/>
      <point x="846" y="175" type="line" smooth="yes"/>
      <point x="843" y="169"/>
      <point x="838" y="166"/>
      <point x="834" y="166" type="curve" smooth="yes"/>
      <point x="829" y="166"/>
      <point x="824" y="169"/>
      <point x="821" y="175" type="curve" smooth="yes"/>
      <point x="397" y="939" type="line" smooth="yes"/>
      <point x="373" y="982"/>
      <point x="356" y="1006"/>
      <point x="313" y="1006" type="curve" smooth="yes"/>
      <point x="189" y="1006" type="line" smooth="yes"/>
      <point x="161" y="1006"/>
      <point x="147" y="996"/>
      <point x="147" y="977" type="curve" smooth="yes"/>
      <point x="147" y="967"/>
      <point x="151" y="954"/>
      <point x="159" y="939" type="curve" smooth="yes"/>
      <point x="676" y="67" type="line" smooth="yes"/>
      <point x="699" y="27"/>
      <point x="733" y="1"/>
    </contour>
  </outline>
</glyph>
<glyph name="w" format="1">
  <advance width="2572"/>
  <unicode hex="0077"/>
  <outline>
    <contour>
      <point x="719" y="0" type="curve" smooth="yes"/>
      <point x="837" y="0" type="line" smooth="yes"/>
      <point x="877" y="0"/>
      <point x="922" y="23"/>
      <point x="943" y="67" type="curve" smooth="yes"/>
      <point x="1276" y="781" type="line"/>
      <point x="1277" y="784"/>
      <point x="1282" y="788"/>
      <point x="1287" y="788" type="curve" smooth="yes"/>
      <point x="1291" y="788"/>
      <point x="1294" y="787"/>
      <point x="1297" y="781" type="curve" smooth="yes"/>
      <point x="1659" y="67" type="line" smooth="yes"/>
      <point x="1680" y="26"/>
      <point x="1716" y="0"/>
      <point x="1755" y="0" type="curve" smooth="yes"/>
      <point x="1875" y="0" type="line" smooth="yes"/>
      <point x="1915" y="0"/>
      <point x="1960" y="23"/>
      <point x="1981" y="67" type="curve" smooth="yes"/>
      <point x="2406" y="939" type="line"/>
      <point x="2418" y="957"/>
      <point x="2424" y="971"/>
      <point x="2424" y="982" type="curve" smooth="yes"/>
      <point x="2424" y="998"/>
      <point x="2411" y="1006"/>
      <point x="2386" y="1006" type="curve" smooth="yes"/>
      <point x="2262" y="1006" type="line" smooth="yes"/>
      <point x="2219" y="1006"/>
      <point x="2189" y="986"/>
      <point x="2168" y="939" type="curve" smooth="yes"/>
      <point x="1832" y="183" type="line"/>
      <point x="1831" y="180"/>
      <point x="1825" y="175"/>
      <point x="1819" y="175" type="curve" smooth="yes"/>
      <point x="1815" y="175"/>
      <point x="1811" y="177"/>
      <point x="1808" y="183" type="curve" smooth="yes"/>
      <point x="1414" y="939" type="line" smooth="yes"/>
      <point x="1392" y="980"/>
      <point x="1375" y="1006"/>
      <point x="1338" y="1006" type="curve" smooth="yes"/>
      <point x="1246" y="1006" type="line" smooth="yes"/>
      <point x="1203" y="1006"/>
      <point x="1174" y="986"/>
      <point x="1152" y="939" type="curve" smooth="yes"/>
      <point x="797" y="183" type="line" smooth="yes"/>
      <point x="794" y="177"/>
      <point x="790" y="173"/>
      <point x="785" y="173" type="curve" smooth="yes"/>
      <point x="781" y="173"/>
      <point x="777" y="176"/>
      <point x="773" y="183" type="curve"/>
      <point x="398" y="939" type="line" smooth="yes"/>
      <point x="376" y="983"/>
      <point x="357" y="1006"/>
      <point x="314" y="1006" type="curve" smooth="yes"/>
      <point x="190" y="1006" type="line" smooth="yes"/>
      <point x="162" y="1006"/>
      <point x="148" y="996"/>
      <point x="148" y="977" type="curve" smooth="yes"/>
      <point x="148" y="967"/>
      <point x="152" y="954"/>
      <point x="160" y="939" type="curve" smooth="yes"/>
      <point x="623" y="67" type="line" smooth="yes"/>
      <point x="646" y="27"/>
      <point x="680" y="0"/>
    </contour>
  </outline>
</glyph>
<glyph name="x" format="1">
  <advance width="1799"/>
  <unicode hex="0078"/>
  <outline>
    <contour>
      <point x="202" y="0" type="curve" smooth="yes"/>
      <point x="331" y="0" type="line" smooth="yes"/>
      <point x="378" y="0"/>
      <point x="432" y="18"/>
      <point x="469" y="47" type="curve" smooth="yes"/>
      <point x="542" y="103"/>
      <point x="701" y="229"/>
      <point x="883" y="375" type="curve"/>
      <point x="894" y="380"/>
      <point x="902" y="381"/>
      <point x="907" y="381" type="curve" smooth="yes"/>
      <point x="915" y="381"/>
      <point x="918" y="378"/>
      <point x="922" y="375" type="curve" smooth="yes"/>
      <point x="1104" y="228"/>
      <point x="1264" y="98"/>
      <point x="1323" y="50" type="curve" smooth="yes"/>
      <point x="1359" y="21"/>
      <point x="1411" y="0"/>
      <point x="1458" y="0" type="curve" smooth="yes"/>
      <point x="1595" y="0" type="line" smooth="yes"/>
      <point x="1612" y="0"/>
      <point x="1623" y="14"/>
      <point x="1623" y="28" type="curve" smooth="yes"/>
      <point x="1623" y="35"/>
      <point x="1620" y="42"/>
      <point x="1613" y="48" type="curve" smooth="yes"/>
      <point x="1398" y="219"/>
      <point x="1213" y="368"/>
      <point x="1057" y="493" type="curve"/>
      <point x="1053" y="499"/>
      <point x="1052" y="504"/>
      <point x="1052" y="507" type="curve" smooth="yes"/>
      <point x="1052" y="511"/>
      <point x="1054" y="513"/>
      <point x="1057" y="515" type="curve"/>
      <point x="1257" y="678"/>
      <point x="1464" y="845"/>
      <point x="1606" y="960" type="curve"/>
      <point x="1613" y="965"/>
      <point x="1617" y="973"/>
      <point x="1617" y="981" type="curve" smooth="yes"/>
      <point x="1617" y="994"/>
      <point x="1607" y="1006"/>
      <point x="1591" y="1006" type="curve" smooth="yes"/>
      <point x="1452" y="1006" type="line" smooth="yes"/>
      <point x="1405" y="1006"/>
      <point x="1382" y="987"/>
      <point x="1345" y="958" type="curve" smooth="yes"/>
      <point x="1277" y="903"/>
      <point x="1120" y="777"/>
      <point x="920" y="622" type="curve"/>
      <point x="913" y="619"/>
      <point x="909" y="618"/>
      <point x="906" y="618" type="curve" smooth="yes"/>
      <point x="901" y="618"/>
      <point x="898" y="620"/>
      <point x="896" y="622" type="curve"/>
      <point x="690" y="787"/>
      <point x="551" y="899"/>
      <point x="480" y="956" type="curve" smooth="yes"/>
      <point x="443" y="985"/>
      <point x="415" y="1006"/>
      <point x="368" y="1006" type="curve" smooth="yes"/>
      <point x="225" y="1006" type="line" smooth="yes"/>
      <point x="208" y="1006"/>
      <point x="197" y="992"/>
      <point x="197" y="978" type="curve" smooth="yes"/>
      <point x="197" y="971"/>
      <point x="200" y="963"/>
      <point x="207" y="958" type="curve"/>
      <point x="287" y="892"/>
      <point x="520" y="702"/>
      <point x="755" y="511" type="curve"/>
      <point x="758" y="506"/>
      <point x="760" y="502"/>
      <point x="760" y="499" type="curve" smooth="yes"/>
      <point x="760" y="495"/>
      <point x="757" y="494"/>
      <point x="755" y="492" type="curve"/>
      <point x="574" y="349"/>
      <point x="374" y="193"/>
      <point x="186" y="46" type="curve" smooth="yes"/>
      <point x="179" y="41"/>
      <point x="176" y="33"/>
      <point x="176" y="26" type="curve" smooth="yes"/>
      <point x="176" y="13"/>
      <point x="186" y="0"/>
    </contour>
  </outline>
</glyph>
<glyph name="y" format="1">
  <advance width="1713"/>
  <unicode hex="0079"/>
  <outline>
    <contour>
      <point x="623" y="-694" type="curve" smooth="yes"/>
      <point x="837" y="-686"/>
      <point x="916" y="-513"/>
      <point x="1032" y="-249" type="curve" smooth="yes"/>
      <point x="1552" y="936" type="line" smooth="yes"/>
      <point x="1555" y="943"/>
      <point x="1557" y="950"/>
      <point x="1557" y="957" type="curve" smooth="yes"/>
      <point x="1557" y="983"/>
      <point x="1536" y="1006"/>
      <point x="1507" y="1006" type="curve" smooth="yes"/>
      <point x="1418" y="1006" type="line" smooth="yes"/>
      <point x="1372" y="1006"/>
      <point x="1330" y="977"/>
      <point x="1315" y="934" type="curve"/>
      <point x="939" y="14" type="line" smooth="yes"/>
      <point x="936" y="7"/>
      <point x="930" y="3"/>
      <point x="924" y="3" type="curve" smooth="yes"/>
      <point x="918" y="3"/>
      <point x="912" y="6"/>
      <point x="910" y="12" type="curve"/>
      <point x="406" y="937" type="line"/>
      <point x="386" y="979"/>
      <point x="341" y="1006"/>
      <point x="295" y="1006" type="curve" smooth="yes"/>
      <point x="194" y="1006" type="line" smooth="yes"/>
      <point x="168" y="1006"/>
      <point x="150" y="985"/>
      <point x="150" y="962" type="curve" smooth="yes"/>
      <point x="150" y="955"/>
      <point x="152" y="947"/>
      <point x="156" y="940" type="curve" smooth="yes"/>
      <point x="773" y="-115" type="line" smooth="yes"/>
      <point x="795" y="-154"/>
      <point x="805" y="-167"/>
      <point x="805" y="-198" type="curve" smooth="yes"/>
      <point x="805" y="-349"/>
      <point x="743" y="-539"/>
      <point x="632" y="-539" type="curve" smooth="yes"/>
      <point x="574" y="-539" type="line" smooth="yes"/>
      <point x="526" y="-539"/>
      <point x="452" y="-527"/>
      <point x="452" y="-382" type="curve" smooth="yes"/>
      <point x="452" y="-291" type="line" smooth="yes"/>
      <point x="452" y="-261"/>
      <point x="441" y="-239"/>
      <point x="409" y="-239" type="curve" smooth="yes"/>
      <point x="294" y="-239" type="line" smooth="yes"/>
      <point x="253" y="-239"/>
      <point x="233" y="-271"/>
      <point x="233" y="-312" type="curve" smooth="yes"/>
      <point x="233" y="-382" type="line" smooth="yes"/>
      <point x="233" y="-552"/>
      <point x="348" y="-704"/>
    </contour>
  </outline>
</glyph>
<glyph name="braceleft" format="1">
  <advance width="1282"/>
  <unicode hex="007B"/>
  <outline>
    <contour>
      <point x="761" y="-123" type="curve" smooth="yes"/>
      <point x="1031" y="-123" type="line" smooth="yes"/>
      <point x="1073" y="-123"/>
      <point x="1108" y="-88"/>
      <point x="1108" y="-46" type="curve" smooth="yes"/>
      <point x="1108" y="64" type="line" smooth="yes"/>
      <point x="1108" y="116"/>
      <point x="1083" y="147"/>
      <point x="1032" y="158" type="curve" smooth="yes"/>
      <point x="775" y="214"/>
      <point x="993" y="572"/>
      <point x="755" y="695" type="curve" smooth="yes"/>
      <point x="741" y="702"/>
      <point x="741" y="718"/>
      <point x="755" y="725" type="curve" smooth="yes"/>
      <point x="993" y="848"/>
      <point x="775" y="1206"/>
      <point x="1032" y="1262" type="curve" smooth="yes"/>
      <point x="1083" y="1273"/>
      <point x="1108" y="1304"/>
      <point x="1108" y="1356" type="curve" smooth="yes"/>
      <point x="1108" y="1466" type="line" smooth="yes"/>
      <point x="1108" y="1508"/>
      <point x="1073" y="1543"/>
      <point x="1031" y="1543" type="curve" smooth="yes"/>
      <point x="761" y="1543" type="line" smooth="yes"/>
      <point x="283" y="1543"/>
      <point x="518" y="942"/>
      <point x="226" y="857" type="curve" smooth="yes"/>
      <point x="172" y="841"/>
      <point x="150" y="812"/>
      <point x="150" y="756" type="curve" smooth="yes"/>
      <point x="150" y="664" type="line" smooth="yes"/>
      <point x="150" y="608"/>
      <point x="172" y="579"/>
      <point x="226" y="563" type="curve" smooth="yes"/>
      <point x="518" y="478"/>
      <point x="283" y="-123"/>
    </contour>
  </outline>
</glyph>
<glyph name="cedilla" format="1">
  <advance width="716"/>
  <unicode hex="00B8"/>
  <outline>
    <contour>
      <point x="403" y="-642" type="curve" smooth="yes"/>
      <point x="547" y="-642"/>
      <point x="620" y="-500"/>
      <point x="620" y="-370" type="curve" smooth="yes"/>
      <point x="620" y="-259"/>
      <point x="567" y="-156"/>
      <point x="459" y="-156" type="curve" smooth="yes"/>
      <point x="439" y="-156"/>
      <point x="417" y="-161"/>
      <point x="396" y="-172" type="curve" smooth="yes"/>
      <point x="375" y="-184"/>
      <point x="355" y="-169"/>
      <point x="359" y="-146" type="curve" smooth="yes"/>
      <point x="379" y="-35" type="line" smooth="yes"/>
      <point x="383" y="-17"/>
      <point x="368" y="1"/>
      <point x="349" y="1" type="curve" smooth="yes"/>
      <point x="307" y="1" type="line" smooth="yes"/>
      <point x="286" y="1"/>
      <point x="268" y="-15"/>
      <point x="265" y="-36" type="curve" smooth="yes"/>
      <point x="234" y="-247" type="line" smooth="yes"/>
      <point x="232" y="-267"/>
      <point x="247" y="-284"/>
      <point x="266" y="-284" type="curve" smooth="yes"/>
      <point x="317" y="-285" type="line" smooth="yes"/>
      <point x="346" y="-285"/>
      <point x="364" y="-277"/>
      <point x="383" y="-255" type="curve" smooth="yes"/>
      <point x="397" y="-238"/>
      <point x="411" y="-231"/>
      <point x="422" y="-231" type="curve" smooth="yes"/>
      <point x="463" y="-231"/>
      <point x="483" y="-301"/>
      <point x="483" y="-377" type="curve" smooth="yes"/>
      <point x="483" y="-464"/>
      <point x="457" y="-557"/>
      <point x="410" y="-557" type="curve" smooth="yes"/>
      <point x="372" y="-557"/>
      <point x="358" y="-514"/>
      <point x="358" y="-461" type="curve" smooth="yes"/>
      <point x="358" y="-444"/>
      <point x="360" y="-427"/>
      <point x="363" y="-409" type="curve" smooth="yes"/>
      <point x="366" y="-389"/>
      <point x="353" y="-373"/>
      <point x="332" y="-373" type="curve" smooth="yes"/>
      <point x="269" y="-372" type="line" smooth="yes"/>
      <point x="250" y="-372"/>
      <point x="229" y="-389"/>
      <point x="225" y="-408" type="curve" smooth="yes"/>
      <point x="221" y="-427"/>
      <point x="219" y="-446"/>
      <point x="219" y="-464" type="curve" smooth="yes"/>
      <point x="219" y="-572"/>
      <point x="289" y="-642"/>
    </contour>
  </outline>
</glyph>
<glyph name="Eacute" format="1">
  <advance width="2040"/>
  <unicode hex="00C9"/>
  <outline>
    <contour>
      <point x="266" y="0" type="curve" smooth="yes"/>
      <point x="1508" y="0" type="line" smooth="yes"/>
      <point x="1551" y="0"/>
      <point x="1575" y="34"/>
      <point x="1575" y="77" type="curve" smooth="yes"/>
      <point x="1575" y="110" type="line" smooth="yes"/>
      <point x="1575" y="153"/>
      <point x="1551" y="187"/>
      <point x="1508" y="187" type="curve" smooth="yes"/>
      <point x="427" y="187" type="line"/>
      <point x="427" y="647" type="line"/>
      <point x="1378" y="647" type="line" smooth="yes"/>
      <point x="1421" y="647"/>
      <point x="1445" y="681"/>
      <point x="1445" y="724" type="curve" smooth="yes"/>
      <point x="1445" y="751" type="line" smooth="yes"/>
      <point x="1445" y="794"/>
      <point x="1421" y="828"/>
      <point x="1378" y="828" type="curve" smooth="yes"/>
      <point x="427" y="828" type="line"/>
      <point x="427" y="1226" type="line" smooth="yes"/>
      <point x="427" y="1246"/>
      <point x="434" y="1251"/>
      <point x="454" y="1251" type="curve" smooth="yes"/>
      <point x="1508" y="1251" type="line" smooth="yes"/>
      <point x="1551" y="1251"/>
      <point x="1575" y="1285"/>
      <point x="1575" y="1328" type="curve" smooth="yes"/>
      <point x="1575" y="1361" type="line" smooth="yes"/>
      <point x="1575" y="1404"/>
      <point x="1551" y="1438"/>
      <point x="1508" y="1438" type="curve" smooth="yes"/>
      <point x="266" y="1438" type="line" smooth="yes"/>
      <point x="223" y="1438"/>
      <point x="199" y="1404"/>
      <point x="199" y="1361" type="curve" smooth="yes"/>
      <point x="199" y="67" type="line" smooth="yes"/>
      <point x="199" y="24"/>
      <point x="223" y="0"/>
    </contour>
    <contour>
      <point x="1610" y="1598" type="curve" smooth="yes"/>
      <point x="1760" y="1598" type="line" smooth="yes"/>
      <point x="1798" y="1598"/>
      <point x="1806" y="1620"/>
      <point x="1816" y="1637" type="curve" smooth="yes"/>
      <point x="1999" y="1965" type="line" smooth="yes"/>
      <point x="2006" y="1977"/>
      <point x="2011" y="1991"/>
      <point x="2011" y="2002" type="curve" smooth="yes"/>
      <point x="2011" y="2018"/>
      <point x="2003" y="2030"/>
      <point x="1983" y="2030" type="curve" smooth="yes"/>
      <point x="1706" y="2030" type="line" smooth="yes"/>
      <point x="1662" y="2030"/>
      <point x="1643" y="2018"/>
      <point x="1635" y="1975" type="curve" smooth="yes"/>
      <point x="1572" y="1665" type="line" smooth="yes"/>
      <point x="1569" y="1651"/>
      <point x="1568" y="1639"/>
      <point x="1568" y="1630" type="curve" smooth="yes"/>
      <point x="1568" y="1603"/>
      <point x="1581" y="1598"/>
    </contour>
  </outline>
</glyph>
<glyph name="ccedilla" format="1">
  <advance width="1574"/>
  <unicode hex="00E7"/>
  <outline>
    <contour>
      <point x="1004" y="-642" type="curve" smooth="yes"/>
      <point x="1148" y="-642"/>
      <point x="1221" y="-500"/>
      <point x="1221" y="-370" type="curve" smooth="yes"/>
      <point x="1221" y="-259"/>
      <point x="1168" y="-156"/>
      <point x="1060" y="-156" type="curve" smooth="yes"/>
      <point x="1040" y="-156"/>
      <point x="1018" y="-161"/>
      <point x="997" y="-172" type="curve" smooth="yes"/>
      <point x="976" y="-184"/>
      <point x="956" y="-169"/>
      <point x="960" y="-146" type="curve" smooth="yes"/>
      <point x="980" y="-36" type="line"/>
      <point x="1110" y="-23"/>
      <point x="1257" y="15"/>
      <point x="1365" y="82" type="curve"/>
      <point x="1319" y="236" type="line"/>
      <point x="1253" y="188"/>
      <point x="1041" y="119"/>
      <point x="878" y="119" type="curve" smooth="yes"/>
      <point x="620" y="119"/>
      <point x="388" y="246"/>
      <point x="389" y="504" type="curve" smooth="yes"/>
      <point x="388" y="786"/>
      <point x="636" y="893"/>
      <point x="878" y="893" type="curve" smooth="yes"/>
      <point x="1044" y="893"/>
      <point x="1269" y="827"/>
      <point x="1336" y="770" type="curve"/>
      <point x="1395" y="920" type="line"/>
      <point x="1260" y="1015"/>
      <point x="1048" y="1053"/>
      <point x="879" y="1053" type="curve" smooth="yes"/>
      <point x="550" y="1053"/>
      <point x="160" y="912"/>
      <point x="160" y="504" type="curve" smooth="yes"/>
      <point x="160" y="112"/>
      <point x="567" y="-36"/>
      <point x="865" y="-41" type="curve"/>
      <point x="835" y="-247" type="line" smooth="yes"/>
      <point x="833" y="-267"/>
      <point x="848" y="-284"/>
      <point x="867" y="-284" type="curve" smooth="yes"/>
      <point x="918" y="-285" type="line" smooth="yes"/>
      <point x="947" y="-285"/>
      <point x="965" y="-277"/>
      <point x="984" y="-255" type="curve" smooth="yes"/>
      <point x="998" y="-238"/>
      <point x="1012" y="-231"/>
      <point x="1023" y="-231" type="curve" smooth="yes"/>
      <point x="1064" y="-231"/>
      <point x="1084" y="-301"/>
      <point x="1084" y="-377" type="curve" smooth="yes"/>
      <point x="1084" y="-464"/>
      <point x="1058" y="-557"/>
      <point x="1011" y="-557" type="curve" smooth="yes"/>
      <point x="973" y="-557"/>
      <point x="959" y="-514"/>
      <point x="959" y="-461" type="curve" smooth="yes"/>
      <point x="959" y="-444"/>
      <point x="961" y="-427"/>
      <point x="964" y="-409" type="curve" smooth="yes"/>
      <point x="967" y="-389"/>
      <point x="954" y="-373"/>
      <point x="933" y="-373" type="curve" smooth="yes"/>
      <point x="870" y="-372" type="line" smooth="yes"/>
      <point x="851" y="-372"/>
      <point x="830" y="-389"/>
      <point x="826" y="-408" type="curve" smooth="yes"/>
      <point x="822" y="-427"/>
      <point x="820" y="-446"/>
      <point x="820" y="-464" type="curve" smooth="yes"/>
      <point x="820" y="-572"/>
      <point x="890" y="-642"/>
    </contour>
  </outline>
</glyph>
<glyph name="eacute" format="1">
  <advance width="2020"/>
  <unicode hex="00E9"/>
  <outline>
    <contour>
      <point x="1047" y="-41" type="curve" smooth="yes"/>
      <point x="1498" y="-41"/>
      <point x="1776" y="33"/>
      <point x="1824" y="219" type="curve"/>
      <point x="1825" y="222"/>
      <point x="1825" y="226"/>
      <point x="1825" y="230" type="curve" smooth="yes"/>
      <point x="1825" y="261"/>
      <point x="1813" y="301"/>
      <point x="1766" y="301" type="curve" smooth="yes"/>
      <point x="1368" y="301" type="line" smooth="yes"/>
      <point x="1312" y="301"/>
      <point x="1321" y="196"/>
      <point x="1084" y="196" type="curve" smooth="yes"/>
      <point x="961" y="196"/>
      <point x="802" y="251"/>
      <point x="793" y="418" type="curve"/>
      <point x="793" y="421" type="line" smooth="yes"/>
      <point x="793" y="437"/>
      <point x="802" y="451"/>
      <point x="818" y="451" type="curve" smooth="yes"/>
      <point x="1808" y="451" type="line" smooth="yes"/>
      <point x="1827" y="451"/>
      <point x="1843" y="466"/>
      <point x="1845" y="484" type="curve" smooth="yes"/>
      <point x="1846" y="496"/>
      <point x="1847" y="506"/>
      <point x="1847" y="520" type="curve" smooth="yes"/>
      <point x="1847" y="936"/>
      <point x="1393" y="1053"/>
      <point x="1038" y="1053" type="curve" smooth="yes"/>
      <point x="643" y="1053"/>
      <point x="160" y="961"/>
      <point x="160" y="504" type="curve" smooth="yes"/>
      <point x="160" y="37"/>
      <point x="649" y="-41"/>
    </contour>
    <contour>
      <point x="1071" y="1166" type="curve" smooth="yes"/>
      <point x="1221" y="1166" type="line" smooth="yes"/>
      <point x="1259" y="1166"/>
      <point x="1267" y="1188"/>
      <point x="1277" y="1205" type="curve" smooth="yes"/>
      <point x="1460" y="1533" type="line" smooth="yes"/>
      <point x="1467" y="1545"/>
      <point x="1472" y="1559"/>
      <point x="1472" y="1570" type="curve" smooth="yes"/>
      <point x="1472" y="1586"/>
      <point x="1464" y="1598"/>
      <point x="1444" y="1598" type="curve" smooth="yes"/>
      <point x="1167" y="1598" type="line" smooth="yes"/>
      <point x="1123" y="1598"/>
      <point x="1104" y="1586"/>
      <point x="1096" y="1543" type="curve" smooth="yes"/>
      <point x="1033" y="1233" type="line" smooth="yes"/>
      <point x="1030" y="1219"/>
      <point x="1029" y="1207"/>
      <point x="1029" y="1198" type="curve" smooth="yes"/>
      <point x="1029" y="1171"/>
      <point x="1042" y="1166"/>
    </contour>
    <contour>
      <point x="1285" y="615" type="curve" smooth="yes"/>
      <point x="806" y="615" type="line" smooth="yes"/>
      <point x="796" y="615"/>
      <point x="794" y="625"/>
      <point x="794" y="636" type="curve" smooth="yes"/>
      <point x="794" y="648" type="line"/>
      <point x="800" y="739"/>
      <point x="909" y="814"/>
      <point x="1049" y="814" type="curve" smooth="yes"/>
      <point x="1189" y="814"/>
      <point x="1289" y="745"/>
      <point x="1298" y="643" type="curve"/>
      <point x="1298" y="634" type="line" smooth="yes"/>
      <point x="1298" y="624"/>
      <point x="1296" y="615"/>
    </contour>
  </outline>
</glyph>
<glyph name="OE" format="1">
  <advance width="3753"/>
  <unicode hex="0152"/>
  <outline>
    <contour>
      <point x="1482" y="-1" type="curve" smooth="yes"/>
      <point x="1555" y="-1"/>
      <point x="1490" y="0"/>
      <point x="3489" y="0" type="curve" smooth="yes"/>
      <point x="3532" y="0"/>
      <point x="3566" y="34"/>
      <point x="3566" y="77" type="curve" smooth="yes"/>
      <point x="3566" y="300" type="line" smooth="yes"/>
      <point x="3566" y="343"/>
      <point x="3532" y="377"/>
      <point x="3489" y="377" type="curve" smooth="yes"/>
      <point x="2515" y="377" type="line" smooth="yes"/>
      <point x="2495" y="377"/>
      <point x="2478" y="394"/>
      <point x="2478" y="414" type="curve" smooth="yes"/>
      <point x="2478" y="541" type="line" smooth="yes"/>
      <point x="2478" y="561"/>
      <point x="2495" y="578"/>
      <point x="2515" y="578" type="curve" smooth="yes"/>
      <point x="3222" y="578" type="line" smooth="yes"/>
      <point x="3265" y="578"/>
      <point x="3299" y="612"/>
      <point x="3299" y="655" type="curve" smooth="yes"/>
      <point x="3299" y="804" type="line" smooth="yes"/>
      <point x="3299" y="847"/>
      <point x="3265" y="881"/>
      <point x="3222" y="881" type="curve" smooth="yes"/>
      <point x="2515" y="881" type="line" smooth="yes"/>
      <point x="2495" y="881"/>
      <point x="2478" y="898"/>
      <point x="2478" y="918" type="curve" smooth="yes"/>
      <point x="2478" y="1018" type="line" smooth="yes"/>
      <point x="2478" y="1038"/>
      <point x="2495" y="1055"/>
      <point x="2515" y="1055" type="curve" smooth="yes"/>
      <point x="3412" y="1055" type="line" smooth="yes"/>
      <point x="3455" y="1055"/>
      <point x="3489" y="1089"/>
      <point x="3489" y="1132" type="curve" smooth="yes"/>
      <point x="3489" y="1361" type="line" smooth="yes"/>
      <point x="3489" y="1403"/>
      <point x="3454" y="1438"/>
      <point x="3412" y="1438" type="curve" smooth="yes"/>
      <point x="1399" y="1438" type="line" smooth="yes"/>
      <point x="868" y="1438"/>
      <point x="158" y="1291"/>
      <point x="158" y="721" type="curve" smooth="yes"/>
      <point x="158" y="70"/>
      <point x="948" y="-1"/>
    </contour>
    <contour>
      <point x="1651" y="376" type="curve" smooth="yes"/>
      <point x="1439" y="376" type="line" smooth="yes"/>
      <point x="1179" y="376"/>
      <point x="1016" y="454"/>
      <point x="1016" y="721" type="curve" smooth="yes"/>
      <point x="1016" y="988"/>
      <point x="1179" y="1065"/>
      <point x="1439" y="1065" type="curve" smooth="yes"/>
      <point x="1651" y="1065" type="line" smooth="yes"/>
      <point x="1671" y="1065"/>
      <point x="1688" y="1048"/>
      <point x="1688" y="1028" type="curve" smooth="yes"/>
      <point x="1688" y="413" type="line" smooth="yes"/>
      <point x="1688" y="393"/>
      <point x="1671" y="376"/>
    </contour>
  </outline>
</glyph>
<glyph name="circumflex" format="1">
  <advance width="849"/>
  <unicode hex="02C6"/>
  <outline>
    <contour>
      <point x="101" y="1217" type="curve" smooth="yes"/>
      <point x="134" y="1217" type="line" smooth="yes"/>
      <point x="180" y="1217"/>
      <point x="238" y="1232"/>
      <point x="278" y="1255" type="curve" smooth="yes"/>
      <point x="388" y="1317" type="line" smooth="yes"/>
      <point x="407" y="1328"/>
      <point x="433" y="1328"/>
      <point x="452" y="1317" type="curve" smooth="yes"/>
      <point x="561" y="1255" type="line" smooth="yes"/>
      <point x="601" y="1232"/>
      <point x="659" y="1217"/>
      <point x="705" y="1217" type="curve" smooth="yes"/>
      <point x="738" y="1217" type="line" smooth="yes"/>
      <point x="766" y="1217"/>
      <point x="779" y="1250"/>
      <point x="758" y="1269" type="curve" smooth="yes"/>
      <point x="595" y="1418" type="line" smooth="yes"/>
      <point x="560" y="1450"/>
      <point x="508" y="1470"/>
      <point x="461" y="1470" type="curve" smooth="yes"/>
      <point x="378" y="1470" type="line" smooth="yes"/>
      <point x="331" y="1470"/>
      <point x="279" y="1450"/>
      <point x="244" y="1418" type="curve" smooth="yes"/>
      <point x="81" y="1269" type="line" smooth="yes"/>
      <point x="60" y="1250"/>
      <point x="73" y="1217"/>
    </contour>
  </outline>
</glyph>
